<?xml version="1.0" encoding="utf-8"?>
<!-- Generator: Adobe Illustrator 21.1.0, SVG Export Plug-In . SVG Version: 6.00 Build 0)  -->
<svg version="1.1" id="Layer_1" xmlns="http://www.w3.org/2000/svg" xmlns:xlink="http://www.w3.org/1999/xlink" x="0px" y="0px"
	 viewBox="0 0 180 180" style="enable-background:new 0 0 180 180;" xml:space="preserve">
<g>
	<path d="M14.3,146c-0.1,0.2-0.2,0.3-0.3,0.5c-0.2,0.4-0.4,0.8-0.6,1.2c-0.2,0.4-0.4,0.7-0.6,1.1c-0.1,0.1-0.2,0.3-0.2,0.4
		c-0.3,0.8-0.6,1.7-0.8,2.5c-0.4,1.7-0.8,3.4-0.8,5.1c0,1.1,0.2,2.2,0.4,3.2c0.2,0.7,0.5,1.3,0.9,1.8c0.8,1,2.2,1.1,3,0.7
		c0.2-0.1,0.4-0.3,0.6-0.5c0.7-0.7,0.9-1.7,1.1-2.6c0.1-0.9,0.2-1.8,0.2-2.8c0-1.9,0-3.8,0-5.7c0-0.6-0.1-1.2-0.4-1.8
		c-0.2-0.2-0.1-0.4,0.1-0.6c0.2-0.2,0.5-0.3,0.7-0.4c0.6-0.3,1.2-0.7,1.8-1.1c0.5-0.4,1-0.7,1.5-1.1c0.1-0.1,0.2-0.2,0.3-0.1
		c0.1,0.1,0.2,0.2,0.2,0.3c0,0.4-0.1,0.8-0.1,1.2c0,4.2,0,8.4,0,12.7c0,0.7,0.1,1.3,0.5,1.8c0.2,0.4,0.5,0.7,0.9,0.9
		c0.1,0.1,0.2,0.1,0.3,0.2c0.2,0.1,0.2,0.4,0,0.5c-0.1,0.1-0.3,0.2-0.4,0.3c-0.7,0.4-1.3,1-1.8,1.6c-0.2,0.2-0.4,0.4-0.6,0.5
		c-0.3,0.3-0.7,0.3-1.1,0.1c-1-0.6-1.8-1.3-2-2.6c-0.1-0.4-0.1-0.8-0.2-1.1c0-0.1-0.1-0.2-0.2-0.2c-0.1-0.1-0.2,0-0.3,0.2
		c-0.1,0.1-0.1,0.2-0.2,0.3c-0.7,1.2-1.8,2.2-2.9,3.1c-1,0.8-2.1,0.8-3.2,0.4c-0.3-0.1-0.5-0.3-0.7-0.5c-0.9-0.7-1.5-1.5-1.9-2.6
		c-0.6-1.5-0.7-3.1-0.6-4.6c0.2-1.6,0.7-3.1,1.5-4.5c0.6-1,1.1-2,1.7-2.9c0.3-0.5,0.6-0.9,1-1.3c0.2-0.2,0.4-0.4,0.4-0.8
		c-0.1,0-0.3,0-0.4,0c-0.4,0.2-0.7,0.3-1,0.5c-0.5,0.3-1.1,0.5-1.7,0.5c-0.5,0-1-0.1-1.5-0.1c-0.3,0-0.4-0.3-0.2-0.5
		c0.1-0.2,0.2-0.3,0.3-0.4c0.5-0.6,0.9-1.3,1.2-2.1c0.1-0.2,0.3-0.5,0.4-0.7c0.2-0.2,0.4-0.3,0.6-0.2c0.1,0,0.1,0.1,0.2,0.1
		c1.2,0.6,2.4,0.6,3.7,0.2C13.9,145.9,13.9,145.9,14.3,146"/>
	<path d="M77.7,166.1c0-0.1-0.1-0.3-0.1-0.5c0-0.3,0-0.6,0-0.9c0-1.1,0-2.2,0-3.3c0-1.3,0-2.7,0-4c0-0.5-0.1-0.9-0.2-1.4
		c-0.1-0.3-0.2-0.6-0.5-0.8c-0.1-0.1-0.3-0.2-0.4-0.3c-0.3-0.3-0.3-0.5,0-0.7c0.5-0.4,0.9-0.8,1.3-1.2c0.2-0.2,0.3-0.3,0.5-0.5
		c0.4-0.4,0.7-0.4,1.3-0.1c0.7,0.4,1.2,1,1.4,1.8c0.1,0.2,0.1,0.4,0.2,0.7c0.1,0.2,0.3,0.2,0.5,0.1c0.1-0.1,0.2-0.2,0.3-0.2
		c0.6-0.6,1.2-1.2,1.9-1.8c0.1-0.1,0.3-0.2,0.4-0.4c0.4-0.4,0.9-0.5,1.4-0.3c1.2,0.5,2,1.3,2.2,2.5c0.1,0.7,0.2,1.4,0.2,2.1
		c0,1.3,0,2.7,0,4c0,0.5,0,1,0.1,1.5c0,0.4,0.2,0.7,0.3,1c0.1,0.3,0.1,0.5-0.3,0.6c-0.2,0.1-0.4,0.2-0.6,0.3
		c-0.9,0.4-1.8,0.9-2.6,1.6c-0.1,0-0.1,0.1-0.2,0.1c-0.2,0.1-0.4,0-0.4-0.2c0-0.1,0-0.3,0-0.5c0-1.9,0-3.7,0-5.6c0-0.8,0-1.6,0-2.4
		c0-0.5-0.2-1.1-0.5-1.5c-0.4-0.5-1.3-0.8-2-0.4c-0.3,0.2-0.5,0.4-0.6,0.8c0,0.2,0,0.3,0,0.5c0,1.9,0,3.8,0,5.7
		c0,0.4,0.2,0.8,0.4,1.2c0.2,0.3,0.1,0.4-0.2,0.6c-0.1,0.1-0.2,0.1-0.3,0.1c-1,0.5-2.1,1-3,1.6c-0.1,0.1-0.2,0.1-0.4,0.2
		C77.9,166.1,77.8,166.1,77.7,166.1"/>
	<path d="M26.2,166.1c0-0.1-0.1-0.3-0.1-0.5c0-0.3,0-0.6,0-0.9c0-1.1,0-2.2,0-3.3c0-1.3,0-2.7,0-4c0-0.5-0.1-0.9-0.2-1.4
		c-0.1-0.3-0.2-0.6-0.5-0.8c-0.1-0.1-0.3-0.2-0.4-0.3c-0.3-0.3-0.3-0.5,0-0.7c0.4-0.4,0.9-0.8,1.4-1.2c0.2-0.2,0.3-0.3,0.5-0.5
		c0.4-0.4,0.7-0.4,1.3-0.1c0.7,0.4,1.2,1,1.5,1.8c0.1,0.2,0.1,0.4,0.2,0.7c0.1,0.2,0.3,0.2,0.5,0.1c0.1-0.1,0.2-0.2,0.3-0.2
		c0.6-0.6,1.2-1.2,1.9-1.8c0.1-0.1,0.3-0.2,0.4-0.4c0.4-0.4,0.9-0.5,1.4-0.3c1.2,0.5,2,1.3,2.2,2.5c0.1,0.7,0.2,1.4,0.2,2.1
		c0,1.3,0,2.7,0,4c0,0.5,0,1,0.1,1.5c0,0.4,0.2,0.7,0.3,1c0.1,0.3,0.1,0.5-0.3,0.6c-0.2,0.1-0.4,0.2-0.6,0.3
		c-0.9,0.4-1.8,0.9-2.6,1.6c-0.1,0-0.1,0.1-0.2,0.1c-0.2,0.1-0.4,0-0.4-0.2c0-0.1,0-0.3,0-0.5c0-1.9,0-3.7,0-5.6c0-0.8,0-1.6,0-2.4
		c0-0.5-0.2-1.1-0.5-1.5c-0.4-0.5-1.3-0.8-2-0.4c-0.3,0.2-0.5,0.4-0.6,0.8c0,0.2,0,0.3,0,0.5c0,1.9,0,3.8,0,5.7
		c0,0.4,0.2,0.8,0.4,1.2c0.2,0.3,0.1,0.4-0.2,0.6c-0.1,0.1-0.2,0.1-0.3,0.1c-1,0.5-2.1,1-3,1.6c-0.1,0.1-0.2,0.1-0.4,0.2
		C26.3,166.1,26.3,166.1,26.2,166.1"/>
	<path d="M52.8,159.6c0-0.6,0-1.2,0-1.8c0-0.6,0.1-1.1,0.2-1.7c0.1-0.6,0.4-1,0.9-1.4c1.1-0.9,2.2-1.7,3.5-2.2
		c0.5-0.2,0.9-0.4,1.4-0.6c0.5-0.3,1-0.2,1.5,0c0.8,0.4,1.4,1,1.9,1.8c0.2,0.3,0.3,0.7,0.3,1.1c0,0.1,0,0.3,0,0.4
		c0.2,1.3-0.4,2.3-1.3,3.1c-1,0.9-2.2,1.6-3.4,2.2c-0.2,0.1-0.4,0.2-0.5,0.3c-0.3,0.2-0.3,0.5-0.1,0.8c0.1,0.2,0.3,0.3,0.5,0.4
		c1.2,0.7,2.4,0.8,3.7,0.3c0.3-0.1,0.5-0.3,0.8-0.4c0.1,0,0.2,0,0.3,0c0.1,0.1,0,0.2-0.1,0.3c-0.2,0.2-0.3,0.3-0.5,0.5
		c-0.6,0.6-1.2,1.2-1.8,1.9c-0.3,0.3-0.7,0.6-1,1c-0.3,0.2-0.6,0.4-0.9,0.4c-0.7,0.1-1.5,0-2.1-0.3c-0.9-0.4-1.6-0.9-2.2-1.7
		c-0.5-0.6-0.7-1.3-0.8-2.1C52.8,161.3,52.8,160.5,52.8,159.6C52.7,159.6,52.7,159.6,52.8,159.6 M59.2,157.2c0-1.1-0.4-2.2-1.2-3
		c-0.2-0.2-0.3-0.3-0.5-0.5c-0.5-0.3-0.8-0.1-0.9,0.4c0,0.2,0,0.3,0,0.5c0,1.6,0,3.3,0,4.9c0,0.2,0,0.4,0.1,0.5
		c0.1,0.3,0.3,0.4,0.5,0.2c0.4-0.3,0.8-0.6,1.2-1C58.9,158.6,59.2,158,59.2,157.2"/>
	<path d="M64.4,159.6c0-0.6,0-1.2,0-1.8c0-0.6,0.1-1.1,0.2-1.7c0.1-0.6,0.4-1,0.9-1.4c1.1-0.9,2.2-1.7,3.5-2.2
		c0.5-0.2,0.9-0.4,1.4-0.6c0.5-0.3,1-0.2,1.5,0c0.8,0.4,1.4,1,1.8,1.8c0.2,0.3,0.3,0.7,0.3,1.1c0,0.1,0,0.3,0,0.4
		c0.2,1.3-0.4,2.3-1.3,3.1c-1,0.9-2.1,1.6-3.4,2.2c-0.2,0.1-0.4,0.2-0.5,0.3c-0.3,0.2-0.3,0.5-0.1,0.8c0.1,0.2,0.3,0.3,0.5,0.4
		c1.2,0.7,2.4,0.8,3.7,0.3c0.3-0.1,0.5-0.3,0.8-0.4c0.1,0,0.2,0,0.3,0c0.1,0.1,0,0.2-0.1,0.3c-0.2,0.2-0.3,0.3-0.5,0.5
		c-0.6,0.6-1.2,1.2-1.8,1.9c-0.3,0.3-0.7,0.6-1,1c-0.3,0.2-0.6,0.4-0.9,0.4c-0.7,0.1-1.5,0-2.1-0.3c-0.9-0.4-1.6-0.9-2.2-1.7
		c-0.5-0.6-0.7-1.3-0.8-2.1C64.4,161.3,64.4,160.5,64.4,159.6C64.4,159.6,64.4,159.6,64.4,159.6 M70.8,157.2c0-1.1-0.4-2.2-1.2-3
		c-0.2-0.2-0.3-0.3-0.5-0.5c-0.5-0.3-0.8-0.1-0.9,0.4c0,0.2,0,0.3,0,0.5c0,1.6,0,3.3,0,4.9c0,0.2,0,0.4,0.1,0.5
		c0.1,0.3,0.3,0.4,0.5,0.2c0.4-0.3,0.8-0.6,1.2-1C70.5,158.6,70.8,158,70.8,157.2"/>
	<path d="M46.6,156c-0.3-0.1-0.4-0.3-0.5-0.6c-0.5-1.1-1.4-1.5-2.5-1.7c-0.6-0.1-1.1-0.1-1.7,0.2c-0.9,0.5-1,1.5-0.3,2.2
		c0.4,0.4,0.9,0.6,1.4,0.7c0.9,0.2,1.8,0.3,2.7,0.5c1.1,0.2,2.2,0.4,3.2,0.9c1.4,0.6,1.8,2,1.4,3.2c-0.2,0.7-0.6,1.3-1.1,1.9
		c-0.3,0.3-0.6,0.7-0.9,1c-0.3,0.3-0.6,0.6-0.9,0.8c-0.2,0.2-0.3,0.3-0.5,0.5c-0.2,0.2-0.4,0.4-0.7,0.5c-0.3,0.2-0.6,0.2-0.9,0
		c-0.4-0.2-0.8-0.4-1.2-0.6c-0.9-0.5-1.9-0.5-3-0.6c-0.8,0-1.5,0.2-2.1,0.8c-0.1,0.1-0.2,0.1-0.3,0.2c-0.2-0.2-0.1-0.3,0-0.4
		c0.4-0.5,0.7-1.1,1.2-1.5c0.2-0.2,0.4-0.3,0.6-0.5c0.6-0.6,1.4-0.8,2.1-1c1.7-0.4,3.2,0.1,4.6,0.8c0.1,0,0.2,0.1,0.3,0.2
		c0.5,0.3,0.8,0.1,0.8-0.5c0-0.5-0.1-1-0.6-1.3c-0.4-0.2-0.8-0.4-1.2-0.6c-0.6-0.2-1.3-0.4-2-0.5c-0.8-0.1-1.7-0.3-2.5-0.4
		c-0.6-0.1-1.1-0.4-1.7-0.6c-1.2-0.6-1.6-1.6-1.4-2.9c0.1-0.8,0.5-1.4,1-2c1.2-1.4,2.6-2.1,4.4-2.5c1-0.2,2.1,0,3.1,0.3
		c0.5,0.2,1,0.5,1.3,0.9c0.2,0.2,0.1,0.5-0.1,0.6c-0.8,0.5-1.4,1.3-2.1,1.9C46.7,155.9,46.6,155.9,46.6,156"/>
	<path d="M96,148.4c0-0.3,0.3-0.4,0.5-0.5c0.3-0.2,0.7-0.4,1-0.6c0.7-0.4,1.3-0.9,1.8-1.5c0,0,0.1-0.1,0.1-0.1
		c0.3-0.3,0.6-0.2,0.7,0.2c0.2,0.7,0.4,1.4,0.6,2.2c0.4,1.2,0.9,2.4,1.3,3.7c0.1,0.2,0.1,0.4,0.2,0.6c0.7,2.1,1.3,4.2,2,6.3
		c0.1,0.2,0.1,0.4,0.4,0.5c0.1-0.1,0.2-0.2,0.2-0.3c0.6-1.5,1.2-2.9,1.7-4.4c0.1-0.2,0.1-0.3,0.2-0.5c0.1-0.3,0.1-0.6,0-0.9
		c-0.4-0.9-0.7-1.9-1.1-2.8c-0.2-0.4-0.4-0.8-0.7-1.2c-0.3-0.3-0.3-0.5,0.1-0.8c0.2-0.2,0.5-0.3,0.7-0.5c0.7-0.5,1.5-1.1,2.1-1.7
		c0.1-0.1,0.1-0.1,0.2-0.2c0.2-0.2,0.4-0.1,0.6,0.1c0,0.1,0.1,0.2,0.1,0.3c0.7,2.5,1.6,5,2.5,7.4c0.4,1.1,0.7,2.2,1.1,3.2
		c0.3,0.8,0.5,1.5,0.8,2.3c0,0.1,0.1,0.2,0.1,0.3c0.1,0,0.2,0,0.3,0c0.1,0,0.1-0.1,0.1-0.2c0.2-0.4,0.3-0.8,0.5-1.2
		c0.2-0.5,0.4-1,0.6-1.6c0.5-1.3,0.9-2.6,0.8-4c-0.2-1.6-0.9-2.8-2.4-3.5c-0.1,0-0.2-0.1-0.3-0.1c-0.1-0.1-0.1-0.2,0-0.3
		c0.1-0.1,0.2-0.1,0.2-0.2c1-0.7,1.8-1.5,2.6-2.3c0.1-0.1,0.1-0.1,0.2-0.2c0.3-0.3,0.5-0.3,0.9-0.1c1.3,0.8,2,2,2.1,3.5
		c0.1,1.2-0.1,2.4-0.7,3.5c0,0.1-0.1,0.2-0.1,0.3c-0.2,0.8-0.7,1.5-1.1,2.2c-0.7,1.2-1.3,2.3-1.9,3.5c-0.3,0.5-0.5,1.1-0.7,1.6
		c-0.1,0.3-0.1,0.6-0.2,0.9c0,0.4,0,0.8,0.3,1.1c0.1,0.2,0.2,0.3,0.4,0.5c-0.1,0.1-0.2,0.2-0.3,0.3c-0.5,0.4-1.1,0.7-1.6,1.1
		c-0.4,0.3-0.7,0.7-1.1,1c-0.2,0.2-0.3,0.3-0.5,0.5c-0.1,0.1-0.3,0.1-0.3-0.1c-0.1-0.1-0.2-0.3-0.2-0.4c-0.2-1-0.6-2-0.9-3
		c-0.4-1.4-0.9-2.7-1.3-4.1c-0.2-0.6-0.4-1.3-0.6-1.9c0-0.1-0.1-0.2-0.1-0.4c-0.1-0.2-0.2-0.3-0.3-0.3c-0.1,0-0.2,0.1-0.3,0.2
		c0,0,0,0,0,0.1c-0.6,1.5-1.2,3-1.8,4.5c0,0,0,0.1,0,0.1c-0.2,0.5-0.1,0.9,0.2,1.3c0.2,0.3,0.4,0.5,0.6,0.8
		c-0.1,0.1-0.2,0.2-0.3,0.3c-0.7,0.6-1.5,1.1-2.2,1.7c-0.2,0.1-0.3,0.4-0.4,0.5c-0.1,0.1-0.1,0.2-0.2,0.3c-0.1,0.1-0.3,0.1-0.3,0
		c-0.1-0.1-0.2-0.3-0.3-0.5c-0.7-2.1-1.4-4.2-2.1-6.3c-0.5-1.4-0.9-2.7-1.4-4.1c-0.3-1-0.7-2-1-2.9c-0.2-0.7-0.5-1.4-0.8-2
		c-0.2-0.3-0.4-0.6-0.7-1C96.2,148.6,96.1,148.5,96,148.4"/>
	<path d="M152.9,160c0-1.4,0-2.5,0.1-3.6c0.1-1.2,0.5-2.3,1.4-3.1c0.6-0.6,1.1-1.2,1.8-1.5c0.1,0,0.2-0.1,0.3-0.2
		c0.9-0.5,1.9-0.5,2.8,0c0.6,0.4,0.7,0.3,0.7-0.4c0-0.5,0-1.1,0-1.6c0-0.7-0.1-1.4-0.4-2c-0.1-0.2,0-0.4,0.2-0.5
		c0.6-0.2,1.1-0.4,1.7-0.6c0.5-0.2,0.9-0.5,1.4-0.7c0.1-0.1,0.2-0.1,0.3-0.2c0.3-0.1,0.5,0,0.6,0.4c0,0.1,0,0.2,0,0.3
		c0,1-0.1,2-0.1,2.9c0,1,0,2,0.1,3c0,0.8,0,1.7,0,2.5c0,2.3-0.1,4.6-0.1,6.9c0,0.5,0.1,0.9,0.2,1.4c0.1,0.5,0,0.6-0.4,0.8
		c-0.6,0.2-1.2,0.6-1.7,0.9c-0.4,0.2-0.7,0.4-1.1,0.7c-0.2,0.1-0.3,0.2-0.5,0.3c-0.1,0.1-0.3-0.1-0.3-0.2c0-0.1,0-0.3,0-0.4
		c0-0.4,0-0.8,0-1.2c0-0.2,0-0.3,0-0.5c0-0.2-0.3-0.3-0.4-0.2c-0.1,0.1-0.2,0.2-0.3,0.2c-0.5,0.5-1,1.1-1.6,1.6
		c-0.7,0.7-1.7,0.9-2.6,0.4c-0.7-0.3-1.2-0.9-1.6-1.6c-0.3-0.7-0.6-1.5-0.6-2.3C153,161,153,160.3,152.9,160 M160,157.6L160,157.6
		c0-1,0-2,0-3c0-0.5-0.1-1-0.3-1.4c-0.2-0.5-0.5-0.8-1-1.1c-0.5-0.3-1.2-0.1-1.5,0.4c-0.2,0.3-0.3,0.6-0.4,0.9
		c-0.1,0.4-0.2,0.8-0.2,1.1c-0.2,2-0.1,4,0,6c0,0.4,0.1,0.7,0.2,1.1c0.1,0.4,0.4,0.7,0.8,1c0.3,0.2,0.6,0.3,1,0.2
		c0.6-0.2,1-0.5,1.2-1c0.2-0.4,0.3-0.8,0.3-1.3C160,159.5,160,158.5,160,157.6"/>
	<path d="M130.5,157.7c0,0.6,0,1.1,0,1.7c0,0.7-0.1,1.3-0.3,2c-0.1,0.4-0.3,0.7-0.5,0.9c-0.9,0.9-2,1.7-3.1,2.2
		c-0.8,0.4-1.7,0.9-2.6,1.1c-0.5,0.1-0.9,0.1-1.4-0.1c-1-0.4-1.8-1-2.3-2c-0.2-0.4-0.3-0.8-0.4-1.2c-0.3-2-0.4-4-0.1-6
		c0.1-0.8,0.4-1.4,1-1.9c0.5-0.6,1.1-1,1.8-1.3c1.1-0.5,2.2-1,3.3-1.4c0.8-0.3,1.7-0.3,2.5,0.1c0.8,0.4,1.4,1.1,1.7,1.9
		c0.3,0.6,0.5,1.3,0.5,2C130.5,156.4,130.5,157.1,130.5,157.7L130.5,157.7z M123.3,157.5C123.3,157.5,123.3,157.5,123.3,157.5
		c0,0.8,0,1.7,0,2.5c0,1.6,0.7,2.8,2.1,3.6c0.2,0.1,0.5,0.2,0.7,0.2c0.3,0,0.5-0.2,0.6-0.5c0-0.2,0-0.3,0.1-0.5
		c0.2-1.3,0.1-2.7,0.1-4c0-0.8,0-1.6-0.1-2.4c-0.2-1.3-0.9-2.2-2-2.7c-0.1-0.1-0.3-0.1-0.4-0.1c-0.3,0-0.6,0.1-0.7,0.5
		c0,0.1-0.1,0.2-0.1,0.4C123.4,155.4,123.3,156.4,123.3,157.5"/>
	<path d="M174.6,155.5c-0.3-0.1-0.4-0.3-0.5-0.6c-0.5-1.1-1.5-1.5-2.5-1.7c-0.6-0.1-1.1-0.1-1.7,0.2c-0.9,0.5-1,1.5-0.3,2.2
		c0.4,0.4,0.9,0.6,1.4,0.7c0.9,0.2,1.8,0.3,2.7,0.5c1.1,0.2,2.2,0.4,3.2,0.9c1.4,0.6,1.8,2,1.4,3.2c-0.2,0.7-0.6,1.3-1.1,1.9
		c-0.3,0.3-0.6,0.7-0.9,1c-0.3,0.3-0.6,0.6-0.9,0.8c-0.2,0.2-0.3,0.3-0.5,0.5c-0.2,0.2-0.4,0.4-0.7,0.5c-0.3,0.2-0.6,0.2-0.9,0
		c-0.4-0.2-0.8-0.4-1.2-0.6c-0.9-0.5-1.9-0.5-3-0.6c-0.8,0-1.5,0.2-2,0.8c-0.1,0.1-0.2,0.1-0.3,0.2c-0.2-0.2-0.1-0.3,0-0.4
		c0.4-0.5,0.7-1.1,1.2-1.5c0.2-0.2,0.4-0.3,0.6-0.5c0.6-0.6,1.3-0.8,2.1-1c1.7-0.4,3.2,0.1,4.6,0.8c0.1,0,0.2,0.1,0.3,0.2
		c0.5,0.3,0.8,0.1,0.8-0.5c0-0.5-0.1-1-0.6-1.3c-0.4-0.2-0.8-0.4-1.2-0.6c-0.6-0.2-1.3-0.4-2-0.5c-0.8-0.1-1.7-0.3-2.5-0.4
		c-0.6-0.1-1.1-0.4-1.7-0.6c-1.2-0.6-1.6-1.6-1.4-2.9c0.1-0.8,0.5-1.4,1-2c1.2-1.4,2.6-2.1,4.4-2.5c1-0.2,2.1,0,3.1,0.3
		c0.5,0.2,1,0.5,1.3,0.9c0.2,0.2,0.1,0.5-0.1,0.6c-0.8,0.5-1.4,1.3-2.1,1.9C174.7,155.4,174.7,155.4,174.6,155.5"/>
	<path d="M145.5,165.7c-0.3-0.2-0.2-0.4-0.2-0.7c0-1.1,0-2.3,0-3.4c0-4,0-8,0-12c0-0.6-0.1-1.1-0.3-1.7c-0.2-0.4,0-0.6,0.3-0.8
		c0.6-0.2,1.1-0.4,1.7-0.6c0.4-0.2,0.9-0.5,1.3-0.7c0.1-0.1,0.3-0.2,0.4-0.2c0.2-0.1,0.5,0,0.5,0.3c0,0.1,0,0.3,0,0.4
		c0,1.3,0,2.6-0.1,4c0,0.2,0,0.3,0,0.5c0,3.4,0,6.8,0,10.2c0,0.2,0,0.5,0,0.7c0,0.5,0.1,1,0.4,1.5c0.2,0.4,0.2,0.6-0.3,0.8
		c-1.2,0.4-2.3,1-3.3,1.7C145.8,165.6,145.6,165.7,145.5,165.7"/>
	<path d="M132.9,154.1c0-0.1,0-0.1,0.1-0.2c0.7-0.6,1.5-1.2,2.2-1.8c0.6-0.4,1-0.4,1.5,0.1c0.4,0.4,0.6,0.9,0.8,1.5
		c0.1,0.2,0.1,0.4,0.2,0.6c0.1,0.3,0.3,0.3,0.5,0.2c0.8-0.8,1.6-1.5,2.4-2.3c0.4-0.4,0.8-0.3,1.2-0.1c1,0.8,1.6,2.1,1.1,3.4
		c-0.5,1.2-1.3,1.9-2.3,2.6c-0.2,0.1-0.4,0-0.4-0.3c0-0.2,0-0.5,0-0.7c0-0.4,0-0.7-0.1-1.1c-0.1-0.4-0.3-0.6-0.6-0.9
		c-0.6-0.5-1.7-0.1-1.7,0.7c0,0.1,0,0.2,0,0.3c-0.1,1.8-0.1,3.6-0.1,5.4c0,0.5,0,0.9,0.2,1.4c0,0.1,0.1,0.2,0.1,0.4
		c0,0.2,0,0.4-0.2,0.5c-0.4,0.2-0.9,0.4-1.3,0.7c-0.6,0.3-1.2,0.7-1.7,1c-0.1,0.1-0.2,0.1-0.3,0.1c-0.1,0.1-0.3,0-0.4-0.2
		c0-0.2-0.1-0.5-0.1-0.7c0-1.5,0.1-3.1,0.1-4.6c0-1.1,0-2.3,0-3.4c0-0.9-0.3-1.7-0.9-2.4C133,154.3,132.9,154.2,132.9,154.1"/>
	<path d="M115.5,60.4c-0.1-0.4-0.3-0.7-0.6-1c-0.3-0.4-0.7-0.7-1-1.1c-0.9-0.8-1.9-1.7-2.8-2.6c-0.3-0.3-0.7-0.6-1.1-0.7
		c-0.4-0.2-0.9-0.3-1.4-0.2c-1.3,0.2-1.9,1.6-1.2,2.7c0.1,0.2,0.2,0.3,0.4,0.5c0.2,0.2,0.2,0.4,0.2,0.6c-0.2,1-0.1,2,0.1,3.1
		c0,0.2,0,0.4,0,0.5c-0.1,0.5,0,0.9,0.1,1.2c0.1,0.3,0.2,0.5,0.4,0.8c0.5,0.9,1.2,1.6,2,2.2c0.1,0.1,0.3,0.2,0.4,0.2
		c0.1,0,0.3,0.1,0.4,0c0.5-0.1,0.7-0.7,0.4-1c-0.1-0.2-0.3-0.3-0.5-0.5c-0.4-0.3-0.7-0.7-1-1.1c-0.1-0.1,0-0.3,0.1-0.3
		c0.1,0,0.2-0.1,0.3-0.1c0.6-0.2,1.1-0.4,1.6-0.7c0.3-0.2,0.6-0.3,1-0.5c0.5-0.3,1-0.6,1.6-0.7c0.1,0,0.2-0.1,0.3-0.1
		c0.2-0.1,0.4-0.4,0.3-0.7C115.6,60.8,115.6,60.6,115.5,60.4 M108.8,56.9c-0.1-0.1-0.1-0.3-0.1-0.5c0.1-0.2,0.2-0.2,0.4-0.2
		c0.2,0,0.4,0.1,0.6,0.2c0.5,0.3,0.9,0.8,1.3,1.2c0,0,0,0.1,0,0.1c0,0,0,0.1,0,0.1c0,0-0.1,0-0.1,0c-0.7-0.2-1.3-0.4-1.9-0.8
		C109,57,108.9,56.9,108.8,56.9 M110.8,62c-0.1,0.1-0.1,0.1-0.2,0.2c-0.2,0.1-0.5,0.1-0.6-0.1c-0.1-0.1-0.1-0.2-0.2-0.2
		c-0.4-0.8-0.5-1.7-0.4-2.6c0-0.2,0.2-0.3,0.4-0.3c0.7,0.2,1,0.7,1.2,1.3c0.1,0.2,0.1,0.5,0,0.5C111.2,61.4,111.1,61.7,110.8,62
		 M112.9,61.1c-0.2,0-0.4-0.1-0.4-0.3c0-0.1,0-0.3,0-0.4c0,0,0.1-0.1,0.1-0.1c0.1,0,0.3,0,0.4,0c0.2,0.1,0.3,0.3,0.3,0.4
		C113.4,60.9,113.2,61.1,112.9,61.1"/>
	<path d="M104.3,71.8c-0.1,0-0.1-0.1-0.2-0.1c-1-0.5-2-0.9-3.1-0.9c-0.4,0-0.9,0.1-1.3,0.1c-0.4,0.1-0.6,0.7-0.3,1
		c0.1,0.1,0.3,0.2,0.4,0.2c0.3,0,0.7,0,1,0c0.7,0,1.4,0.1,2.1,0.4c0.2,0.1,0.4,0.2,0.5,0.2c0.1,0,0.2,0,0.3,0.1
		c0.3,0.1,0.6-0.1,0.7-0.4C104.6,72.3,104.5,72,104.3,71.8"/>
	<path d="M106.6,70.6c-0.2-0.2-0.6-0.2-0.8,0c-0.2,0.2-0.3,0.5-0.2,0.8c0.1,0.1,0.1,0.2,0.2,0.3c0.3,0.5,0.3,0.9,0.1,1.4
		c-0.1,0.3-0.3,0.5-0.4,0.8c-0.1,0.1-0.1,0.3-0.2,0.5c-0.1,0.3,0.1,0.5,0.3,0.7c0.2,0.1,0.6,0.1,0.7-0.1c0.1-0.1,0.2-0.2,0.3-0.3
		c0.3-0.4,0.5-0.8,0.6-1.2c0.1-0.3,0.2-0.7,0.2-0.9c0-0.7-0.2-1.3-0.6-1.8C106.8,70.7,106.7,70.7,106.6,70.6"/>
	<path d="M66.9,61.2c0.1,0,0.3,0.1,0.4,0.1c0.4,0.1,0.9,0.1,1.3,0.2c0.8,0.2,1.7,0.3,2.6,0.4c0.2,0,0.3,0.1,0.5,0.1
		c0,0,0.1,0.1,0.1,0.2c-0.1,0.1-0.1,0.2-0.2,0.3c-0.5,0.5-1,0.9-1.5,1.4c-0.2,0.2-0.3,0.3-0.5,0.5c-0.2,0.2-0.2,0.6,0,0.8
		c0.2,0.2,0.5,0.3,0.8,0.2c0.2-0.1,0.4-0.2,0.5-0.3c1-0.8,2-1.8,2.8-2.8c0.3-0.4,0.5-0.8,0.8-1.3c0.3-0.6,0.3-1.2,0.1-1.8
		c-0.4-1.2-1-2.3-1.8-3.2c-0.1-0.1-0.2-0.2-0.4-0.3c-0.1-0.1-0.2-0.1-0.4-0.2c-0.2-0.1-0.5,0-0.7,0.2c-0.2,0.2-0.2,0.5,0,0.7
		c0.1,0.2,0.3,0.3,0.5,0.5c0.6,0.7,1.1,1.5,1.4,2.4c0.2,0.6,0,0.9-0.6,1c-0.8,0.1-1.6,0.1-2.4-0.1c-0.5-0.1-0.9-0.2-1.4-0.3
		c-0.4-0.1-0.8-0.1-1.2-0.2c-0.2,0-0.3,0-0.5,0c-0.3,0-0.5,0.3-0.6,0.6C66.4,60.8,66.7,61.1,66.9,61.2"/>
	<path d="M76.7,73c0.2,0,0.3,0,0.5,0c0.2-0.1,0.4-0.2,0.6-0.3c0.6-0.3,1.3-0.4,1.9-0.4c0.2,0,0.5,0,0.7,0c0.2,0,0.3,0,0.5,0
		c0.3-0.1,0.5-0.3,0.5-0.7c0-0.1-0.1-0.4-0.3-0.5c-0.1-0.1-0.2-0.1-0.4-0.1c-0.8-0.1-1.5-0.1-2.3,0.1c-0.7,0.1-1.4,0.5-2,0.8
		c0,0-0.1,0-0.1,0.1c-0.2,0.2-0.3,0.5-0.2,0.7C76.2,72.8,76.4,73,76.7,73"/>
	<path d="M74.1,70.6c-0.1,0-0.1,0.1-0.2,0.1c-0.5,0.5-0.7,1.1-0.8,1.8c0,0.1,0,0.3,0.1,0.5c0.1,0.7,0.5,1.2,0.9,1.8
		c0,0,0.1,0.1,0.1,0.1c0.2,0.2,0.6,0.2,0.8,0.1c0.3-0.2,0.4-0.5,0.3-0.8c-0.1-0.2-0.2-0.4-0.3-0.5c-0.1-0.2-0.2-0.5-0.3-0.7
		c-0.2-0.4-0.1-0.8,0.1-1.1c0.1-0.2,0.2-0.3,0.3-0.5c0.1-0.2,0-0.5-0.2-0.7C74.7,70.4,74.4,70.4,74.1,70.6"/>
	<path d="M137.9,62.2c-0.1-3.1-0.4-6.1-0.8-9.1c-0.4-3-1-6-1.8-9c-1-3.4-2.2-6.7-3.9-9.8c-4.1-7.6-10.1-13.1-18-16.4
		c-3-1.2-6-2.1-9.1-2.7c-3.9-0.8-8.6-1.1-12.6-1.2c-2.8,0-5.6,0.1-8.4,0.3c-2.9,0.3-5.8,0.7-8.6,1.4c-3.5,0.9-6.8,2.1-9.9,3.8
		c-3.1,1.7-5.8,3.7-8.3,6.2c-2.4,2.4-4.3,5.1-6,8c-1.5,2.7-2.7,5.5-3.6,8.4c-1.4,4.5-2.3,9.1-2.8,13.7c-0.3,2.6-0.5,5.2-0.5,7.8
		c-0.1,4.4-0.1,8.8,0.3,13.1c0.2,2.8,0.6,5.5,1.1,8.3c0.5,2.9,1.2,5.8,2.2,8.7c1.1,3.4,2.6,6.7,4.6,9.8c3.1,5,7.2,9.1,12.3,12.1
		c2.8,1.7,5.9,2.9,9,3.9c4.3,1.3,8.6,1.9,13,2.2c4.3,0.2,9.4,0.1,13.7-0.3c2.7-0.3,5.5-0.8,8.1-1.4c3.3-0.8,6.5-2,9.5-3.6
		c4.2-2.2,7.8-5.2,10.8-9c1.7-2.2,3.1-4.5,4.3-7c1.3-2.7,2.3-5.5,3-8.4c1.1-4.3,1.8-8.8,2.2-13.2c0.3-3.1,0.4-6.3,0.4-10.1
		C138.1,66.9,138,64.5,137.9,62.2 M135.6,61c0,0.4,0,0.8,0.1,1.2c0,0.5,0.1,1,0.1,1.5c0,0.1,0,0.2,0,0.3c0,0.2-0.2,0.3-0.3,0.4
		c-2.1,0.5-4.1-0.6-4.8-2.7c-0.1-0.2-0.1-0.5-0.2-0.8c-0.1-0.3-0.1-0.6-0.2-0.9c-0.3-0.7-0.8-1.2-1.5-1.4c-0.3-0.1-0.6-0.1-0.9-0.2
		c-0.2,0-0.4,0-0.6,0c-0.5,0-0.9-0.2-1.3-0.5c-0.8-0.6-1.5-1.4-1.9-2.4c-0.2-0.4-0.3-0.7-0.5-1.1c-0.1-0.2,0.1-0.3,0.3-0.3
		c0.1,0,0.2,0,0.3,0.1c0.7,0.2,1.4,0.2,2.2,0c0.4-0.1,0.8-0.2,1.1-0.4c0.9-0.4,1.8-0.3,2.7,0.2c0.6,0.3,1.1,0.6,1.7,0.9
		c1.1,0.6,2,1.5,2.5,2.6c0.2,0.3,0.3,0.7,0.5,1c0.1,0.2,0.2,0.4,0.3,0.5C135.6,59.9,135.6,59.8,135.6,61 M134.7,52.4
		c0.1,0.9,0.3,1.8,0.4,2.7c0,0.1,0,0.2-0.1,0.3c0,0-0.1,0.1-0.2,0.1c-0.1,0-0.2-0.1-0.2-0.2c-0.7-0.8-1.5-1.4-2.4-1.8
		c-0.4-0.2-0.9-0.4-1.3-0.7c-0.2-0.1-0.4-0.2-0.6-0.3c-0.9-0.4-1.8-0.4-2.7-0.2c-0.3,0.1-0.7,0.2-1,0.3c-0.3,0.1-0.7,0.2-1.1,0.2
		c-0.8,0.1-1.4-0.2-1.9-0.8c-0.2-0.3-0.5-0.6-0.6-0.9c-0.2-0.4-0.4-0.8-0.6-1.1c-0.2-0.3-0.3-0.6-0.5-1c-0.4-0.7-1-1.2-1.7-1.5
		c-0.3-0.1-0.6-0.3-0.9-0.4c-0.7-0.3-1.2-0.7-1.7-1.4c-0.4-0.5-0.7-1.1-0.9-1.8c0-0.1,0-0.2,0-0.3c0.1-0.1,0.2-0.1,0.3-0.1
		c0.6,0.1,1.2,0.3,1.7,0.4c1,0.3,1.8,0.9,2.3,1.7c0.2,0.3,0.4,0.6,0.6,0.9c0.2,0.3,0.4,0.6,0.6,0.9c0.2,0.3,0.5,0.5,0.8,0.8
		c0.7,0.5,1.4,0.7,2.3,0.4c0.3-0.1,0.7-0.2,1-0.4c1-0.5,2.1-0.7,3.2-0.7c0.9,0,1.7,0.2,2.4,0.8c0.3,0.3,0.6,0.6,0.9,0.9
		c0.6,0.6,1.1,1.2,1.6,1.9C134.5,51.7,134.7,52,134.7,52.4 M131.4,40.6c0.1,0,0.3,0.1,0.4,0.2c0.1,0.2,0.1,0.3,0.2,0.5
		c0.8,2.3,1.5,4.6,2,7c0,0.1,0,0.2,0,0.3c0,0,0,0.1,0,0.1c-0.1,0-0.1,0-0.2,0c-0.2-0.2-0.4-0.3-0.6-0.5c-0.4-0.3-0.7-0.7-1.2-0.9
		c-0.7-0.5-1.6-0.7-2.4-0.7c-1.4,0-2.7,0.2-4,0.8c-0.2,0.1-0.4,0.2-0.6,0.3c-0.6,0.3-1.2,0.1-1.6-0.4c-0.2-0.2-0.4-0.5-0.6-0.8
		c-0.2-0.3-0.4-0.7-0.6-1c-0.8-1.4-2-2.2-3.5-2.6c-0.5-0.1-0.9-0.2-1.3-0.3c-0.4-0.1-0.8-0.2-1.1-0.4c-0.6-0.3-1-0.8-1.2-1.4
		c-0.1-0.3-0.1-0.7-0.2-1c0-0.2,0-0.3,0-0.5c-0.1-0.8-0.4-1.4-1-1.8c-0.3-0.2-0.5-0.4-0.8-0.6c-0.4-0.2-0.7-0.5-0.9-0.9
		c-0.2-0.3-0.4-0.7-0.4-1.1c0-0.4,0.1-0.8,0.2-1.1c0.4-0.8,0.9-1.4,1.5-1.9c0.1-0.1,0.3,0,0.4,0.1c0,0,0,0.1,0,0.1
		c0.2,1.4,0.8,2.6,1.3,3.8c0.1,0.2,0.2,0.4,0.3,0.5c0.5,0.9,1.2,1.5,2.2,1.8c0.4,0.1,0.8,0.2,1.3,0.3c0.2,0.1,0.5,0.1,0.7,0.2
		c0.7,0.2,1.2,0.5,1.6,1.1c0.1,0.1,0.2,0.3,0.3,0.4c0.1,0.1,0.2,0.3,0.3,0.4c0.7,1.1,1.7,1.6,3,1.8c1.3,0.2,2.6,0,3.8-0.5
		c0.6-0.3,1.3-0.6,1.9-0.8C130.6,40.8,131,40.7,131.4,40.6 M129.1,35.4c0.2,0,0.3,0.1,0.4,0.2c0.1,0.1,0.1,0.2,0.2,0.3
		c0.4,0.9,0.8,1.8,1.3,2.7c0,0.1,0.1,0.2,0.1,0.3c0,0.1,0,0.3-0.1,0.4c-0.1,0-0.2,0.1-0.3,0.1c-0.9,0.4-1.8,0.7-2.7,1.1
		c-0.5,0.2-1.1,0.4-1.6,0.5c-0.8,0.1-1.5,0-2.3-0.2c-0.4-0.1-0.8-0.4-1.1-0.7c-0.1-0.1-0.2-0.3-0.4-0.5c-0.1-0.2-0.2-0.3-0.3-0.5
		c-0.7-1.1-1.7-1.7-2.9-1.9c-0.2,0-0.5-0.1-0.7-0.1c-0.3-0.1-0.6-0.1-0.9-0.2c-0.6-0.2-1-0.5-1.3-1.1c0-0.1-0.1-0.1-0.1-0.2
		c-0.5-1-0.9-2.1-1.2-3.2c-0.1-0.4-0.2-0.8-0.2-1.3c0-0.2,0.1-0.5,0.1-0.7c0.1-0.2,0.2-0.4,0.3-0.5c0.6-0.5,1.2-0.9,1.9-1.2
		c0.1,0,0.2,0.1,0.2,0.1c0,0.1,0,0.2,0,0.3c0,0.2,0,0.4,0,0.6c0,0.6,0.2,1.2,0.5,1.7c0.5,0.7,1.1,1.2,1.9,1.3
		c0.4,0.1,0.7,0.1,1.1,0.1c0.3,0,0.5,0,0.8-0.1v0c0.4,0,0.9,0,1.3,0c0.7,0,1.4,0.2,1.9,0.7c0.2,0.2,0.4,0.4,0.6,0.6
		c0.2,0.2,0.5,0.5,0.7,0.7c0.6,0.5,1.3,0.8,2.1,0.7C128.8,35.4,129,35.4,129.1,35.4 M122.2,26.4c0.2-0.1,0.3,0,0.5,0.1
		c0.1,0.1,0.2,0.2,0.3,0.3c2.1,2,3.8,4.2,5.3,6.7c0.1,0.1,0.1,0.2,0.2,0.4c0,0.1-0.1,0.3-0.2,0.3c-0.2,0-0.4-0.1-0.6-0.2
		c-0.2-0.2-0.4-0.3-0.6-0.5c-0.2-0.2-0.5-0.5-0.7-0.7c-0.9-0.9-2-1.4-3.3-1.3c-0.1,0-0.2,0-0.3,0c-0.5,0-0.9,0.1-1.4,0.1
		c-0.3,0-0.7,0-1,0c-0.7-0.1-1.1-0.6-1.2-1.3c0-0.3,0-0.5,0-0.8c0-0.2,0.1-0.4,0.2-0.6c0.6-1.5,0.5-1.3,1.7-1.9
		C121.4,26.7,121.8,26.5,122.2,26.4 M53.6,33c0.1-0.2,0.2-0.4,0.4-0.6c1.2-1.9,2.7-3.6,4.3-5.2c0.1-0.1,0.3-0.3,0.4-0.4
		c0.1-0.1,0.3-0.2,0.5-0.1c0.2,0.1,0.3,0.1,0.5,0.2c0.4,0.2,0.9,0.3,1.2,0.7c0.4,0.6,0.7,1.3,0.8,2.1c0.1,0.4-0.1,0.9-0.3,1.2
		c-0.2,0.2-0.4,0.4-0.6,0.5c-0.3,0.1-0.6,0.1-1,0.1c-0.3,0-0.5-0.1-0.8-0.1c-0.5,0-0.9-0.1-1.4-0.1c-1.1,0-2.1,0.4-2.9,1.1
		c-0.2,0.2-0.3,0.3-0.5,0.5c-0.2,0.2-0.3,0.3-0.5,0.4C53.5,33.2,53.5,33.1,53.6,33 M50.4,39C50.4,39,50.4,38.9,50.4,39
		c0.4-1.1,0.9-2.1,1.4-3.1c0.1-0.3,0.3-0.4,0.6-0.5c0.1,0,0.3,0,0.4-0.1c0.5-0.1,0.9-0.3,1.3-0.7c0.3-0.2,0.5-0.5,0.8-0.8
		c0.2-0.2,0.5-0.5,0.7-0.7c0.4-0.4,1-0.6,1.6-0.6c0.5,0,1,0,1.5,0c0,0,0,0,0,0c0.5,0,1,0,1.5,0c1.9-0.1,2.8-1.7,2.8-3
		c0-0.3,0-0.6,0-0.9c0-0.1,0.2-0.2,0.3-0.2c0.7,0.3,1.3,0.7,1.8,1.2c0.2,0.1,0.3,0.4,0.4,0.6c0.2,0.4,0.2,0.8,0.1,1.3
		c-0.1,0.5-0.2,1-0.4,1.4c-0.2,0.7-0.5,1.4-0.8,2c-0.1,0.2-0.1,0.3-0.2,0.4c-0.3,0.6-0.7,0.9-1.3,1.1c-0.3,0.1-0.6,0.2-0.9,0.2
		c-0.3,0.1-0.6,0.1-0.9,0.2c-1.1,0.2-1.9,0.8-2.5,1.7c-0.1,0.2-0.3,0.4-0.4,0.6c-0.1,0.2-0.2,0.3-0.4,0.5c-0.4,0.5-0.8,0.7-1.4,0.9
		c-1.1,0.3-2.2,0.2-3.3-0.2c-0.4-0.1-0.7-0.3-1.1-0.5c-0.4-0.2-0.9-0.4-1.3-0.5C50.4,39.4,50.3,39.3,50.4,39 M47.8,47.2
		c0.5-2,1-3.9,1.7-5.8c0-0.1,0.1-0.2,0.2-0.4c0-0.1,0.2-0.2,0.3-0.2c0.2,0,0.3,0.1,0.5,0.1c0.6,0.2,1.1,0.5,1.6,0.7
		c0.8,0.3,1.6,0.6,2.4,0.6c0.8,0.1,1.6,0,2.4-0.2c0.8-0.2,1.5-0.6,2-1.3c0.2-0.2,0.3-0.4,0.5-0.6c0.2-0.2,0.3-0.4,0.5-0.6
		c0.4-0.5,0.8-0.8,1.4-0.9c0.3-0.1,0.6-0.1,0.9-0.2c0.4-0.1,0.8-0.2,1.2-0.3c0.9-0.3,1.6-0.9,2.1-1.7c0.1-0.2,0.2-0.4,0.3-0.5
		c0.3-0.7,0.6-1.4,0.8-2.1c0.2-0.5,0.3-1,0.4-1.5c0-0.1,0.1-0.3,0.1-0.4c0-0.1,0.2-0.2,0.3-0.1c0.6,0.5,1.2,1.2,1.5,1.9
		c0.2,0.4,0.3,0.8,0.3,1.1c0,0.4-0.2,0.7-0.4,1c-0.2,0.3-0.5,0.5-0.8,0.8c-0.2,0.2-0.5,0.3-0.7,0.5c-0.2,0.2-0.4,0.3-0.6,0.5
		c-0.3,0.3-0.6,0.7-0.6,1.2c-0.1,0.3-0.1,0.6-0.1,0.9c0,0.3-0.1,0.5-0.1,0.8c-0.2,0.7-0.6,1.3-1.3,1.6c-0.3,0.1-0.7,0.3-1,0.4
		c-0.3,0.1-0.6,0.2-1,0.2c-0.4,0.1-0.9,0.2-1.3,0.4c-0.9,0.4-1.7,1-2.3,1.8c-0.3,0.5-0.6,0.9-0.9,1.4c-0.2,0.4-0.5,0.7-0.8,1
		c-0.4,0.3-0.8,0.4-1.2,0.3c-0.3-0.1-0.6-0.2-0.8-0.3c-1.2-0.6-2.5-0.8-3.9-0.8c-0.9,0-1.8,0.2-2.5,0.7c-0.2,0.1-0.4,0.3-0.7,0.4
		c0,0-0.1,0-0.2-0.1c0,0,0-0.1,0-0.1C47.8,47.4,47.8,47.3,47.8,47.2 M46.6,53.9c0.1-0.9,0.3-1.7,0.4-2.6c0.1-0.5,0.2-0.9,0.6-1.2
		c0.4-0.4,0.7-0.7,1-1.1c0.3-0.3,0.6-0.5,0.9-0.7c0.6-0.4,1.2-0.5,1.9-0.5c1.1,0,2.1,0.2,3.1,0.7c0.3,0.2,0.7,0.3,1,0.4
		c0.9,0.3,1.7,0.1,2.4-0.5c0.3-0.3,0.6-0.6,0.9-1c0.3-0.4,0.5-0.7,0.7-1.1c0.2-0.3,0.3-0.5,0.5-0.7c0.4-0.6,1-1.1,1.7-1.3
		c0.7-0.3,1.5-0.4,2.2-0.6c0.2,0,0.3,0.2,0.2,0.3c-0.3,0.8-0.7,1.6-1.3,2.2c-0.3,0.4-0.8,0.7-1.2,0.9c-0.3,0.1-0.7,0.3-1,0.4
		c-0.7,0.3-1.2,0.8-1.6,1.4c-0.2,0.4-0.5,0.8-0.7,1.2c-0.2,0.4-0.4,0.8-0.7,1.2c-0.2,0.3-0.4,0.6-0.7,0.8c-0.4,0.4-0.9,0.6-1.5,0.6
		c-0.4,0-0.7-0.1-1.1-0.2c-0.3-0.1-0.6-0.2-0.9-0.3C52.3,52,51.2,52,50,52.6c-1,0.5-2,1-3,1.6c-0.1,0-0.1,0.1-0.2,0.1
		c-0.1,0.1-0.3,0-0.3-0.1C46.6,54.1,46.6,54,46.6,53.9 M45.8,63.3c0-0.7,0.1-1.5,0.1-2.2h0c0.1-1,0.2-1.9,0.2-2.9
		c0-0.4,0.1-0.8,0.3-1.1c0.5-0.9,1.2-1.7,2.1-2.2c0.7-0.4,1.4-0.7,2.1-1.1c0.2-0.1,0.4-0.2,0.6-0.2c0.4-0.1,0.8-0.2,1.3-0.1
		c0.4,0.1,0.7,0.2,1.1,0.3c0.4,0.1,0.8,0.2,1.1,0.3c0.6,0.1,1.2,0.1,1.8-0.1c0.1,0,0.3,0,0.4-0.1c0.1,0,0.2,0.1,0.2,0.2
		c0,0.1,0,0.1,0,0.2c-0.5,1.2-1.1,2.3-2.1,3.2c-0.5,0.4-1,0.7-1.7,0.7c-0.4,0-0.7,0.1-1.1,0.2c-0.9,0.2-1.5,0.8-1.8,1.7
		c-0.1,0.4-0.2,0.8-0.3,1.2c-0.2,0.7-0.5,1.3-1,1.8c-0.7,0.7-1.5,1.2-2.5,1.3c-0.1,0-0.3,0-0.4,0c-0.2,0-0.4-0.2-0.4-0.4
		C45.8,63.8,45.8,63.6,45.8,63.3 M45.7,69.5c0-0.5,0-1,0-1.5h0c0-0.6,0-1.1,0-1.7c0-0.3,0.2-0.4,0.4-0.4c0.1,0,0.1,0,0.2,0
		c0.1,0,0.2,0,0.3,0c2-0.1,3.9-1.5,4.6-3.7c0.1-0.3,0.1-0.5,0.2-0.8c0.1-0.3,0.1-0.5,0.2-0.8c0.1-0.4,0.4-0.6,0.7-0.7
		c0.2,0,0.3-0.1,0.5-0.1c0.2,0,0.3,0.2,0.3,0.3c0,0.1-0.1,0.2-0.1,0.3c-0.5,1.2-0.9,2.5-1.2,3.8c-0.2,0.7-0.4,1.4-0.6,2.1
		c-0.1,0.3-0.2,0.6-0.3,0.9c-0.4,1-1.1,1.7-2,2.2c-0.8,0.4-1.7,0.7-2.7,0.7c-0.1,0-0.2,0-0.3,0c-0.1,0-0.2-0.1-0.2-0.2
		C45.8,69.8,45.8,69.7,45.7,69.5 M56.2,104.3c-0.1,0.3-0.2,0.6-0.3,0.9c-0.1,0.2-0.3,0.2-0.4,0.1c-0.2-0.3-0.4-0.5-0.6-0.8
		c-1.5-2-2.7-4.2-3.8-6.4c-1.4-3-2.4-6.1-3.2-9.3c-0.4-1.5-0.7-3-0.9-4.5c0-0.3-0.1-0.5-0.1-0.8c0-0.1,0.1-0.3,0.2-0.3
		c0.3,0,0.6,0,0.9,0c0.7,0,1.5-0.1,2.1-0.5c0.8-0.4,1.4-1,1.6-1.9c0-0.1,0.1-0.3,0.1-0.4c0-0.3-0.2-0.6-0.5-0.6
		c-0.2-0.1-0.6,0.1-0.7,0.3c-0.1,0.1-0.2,0.3-0.2,0.4c-0.2,0.6-0.7,1-1.3,1.1c-0.7,0.2-1.4,0.2-2.2,0c-0.2-0.1-0.3-0.2-0.4-0.4
		c0-0.1,0-0.1,0-0.2c-0.1-1.2-0.3-2.4-0.4-3.6c0-0.2,0-0.3,0-0.5c0,0,0.1-0.1,0.2-0.1c0.2,0.1,0.4,0.3,0.6,0.4
		c0.3,0.2,0.7,0.3,1.1,0.2c0.7-0.1,1.1-0.6,1.2-1.3c0-0.3,0-0.5-0.1-0.8c-0.1-0.4-0.3-0.8-0.5-1.2c0-0.1-0.1-0.1-0.1-0.2
		c-0.2-0.2-0.6-0.3-0.8-0.2c-0.3,0.1-0.4,0.5-0.3,0.8c0.1,0.2,0.1,0.4,0.2,0.6c0.1,0.2,0.1,0.3,0.2,0.5c0,0,0,0.1,0,0.1
		c0,0-0.1,0-0.1,0c-0.1-0.1-0.2-0.1-0.2-0.2c-0.3-0.5-0.6-0.9-1.1-1.3c-0.2-0.1-0.3-0.4-0.3-0.6c0-0.2,0-0.3,0-0.5
		c0-0.2,0.1-0.4,0.2-0.5c0.2-0.2,0.4-0.4,0.5-0.6c0.2-0.2,0.2-0.5,0.5-0.6c0.2-0.1,0.5-0.1,0.8-0.2c0.6-0.1,1.1-0.3,1.7-0.6
		c1.3-0.7,2.2-1.7,2.8-3c0.2-0.4,0.3-0.8,0.4-1.2c0.3-0.9,0.5-1.9,0.8-2.8c0.2-0.8,0.5-1.6,0.8-2.4c0.2-0.6,0.5-1.1,0.8-1.6
		c0.2-0.4,0.5-0.7,0.8-1c1.4-1.3,2.3-2.9,2.8-4.7c0.2-0.6,0.3-1.2,0.4-1.7c0.1-0.3,0.1-0.6,0.3-0.9c0.2-0.4,0.5-0.9,0.7-1.3
		c0.3-0.5,0.7-0.9,1.3-1.2c0.3-0.1,0.6-0.3,0.9-0.4c0.8-0.3,1.4-0.9,1.9-1.5c0.4-0.5,0.7-1,0.9-1.5c0.2-0.5,0.4-1,0.6-1.5
		c0.3-0.8,0.6-1.5,1-2.3c0.2-0.5,0.4-1,0.4-1.5c0-0.3,0-0.5,0.1-0.8c0.1-0.4,0.2-0.8,0.6-1c0.5-0.3,1-0.7,1.5-1
		c0.1-0.1,0.3,0,0.4,0.1c0.1,0.2,0.3,0.5,0.4,0.7c0.5,1,1,1.9,1.4,2.9c0.6,1.3,1.2,2.7,1.9,4.1c0.4,0.7,0.7,1.5,1.1,2.2
		c0.3,0.6,0.7,1.2,1,1.8c0.2,0.5,0.4,1,0.7,1.5c0.2,0.4,0.3,0.7,0.3,1.2c0,0.4-0.1,0.6-0.5,0.4c-0.5-0.2-0.9-0.4-1.4-0.5
		c-1.6-0.3-3.2-0.1-4.6,0.7c-2.2,1.1-4.1,2.6-5.7,4.4c-0.4,0.5-0.9,1-1.3,1.5c-0.5,0.6-1,1.3-1.5,1.9c-0.1,0.1-0.2,0.3-0.3,0.4
		c-0.1,0.2-0.1,0.5,0.1,0.7c0.2,0.2,0.5,0.3,0.7,0.1c0.1-0.1,0.2-0.1,0.3-0.2c0.3-0.3,0.5-0.6,0.8-0.9c0.4-0.5,0.8-1,1.2-1.6
		c1.6-2.1,3.6-3.7,6-5c1-0.6,2-0.8,3.1-0.8c0.4,0,0.9,0.1,1.3,0.2c0.9,0.3,1.6,0.9,1.9,1.9c0,0.1,0.1,0.2,0.1,0.3
		c0.2,0.9,0.6,1.8,1,2.6c0.8,1.8,1.7,3.5,2.5,5.3c0.3,0.6,0.6,1.3,0.9,1.9c0.3,0.6,0.6,1.2,0.9,1.8c0.4,0.7,0.8,1.4,1.2,2.1
		c0.2,0.3,0.3,0.6,0.5,0.9c0.2,0.5,0.3,1,0.2,1.6c0,0.2-0.1,0.5-0.2,0.7c-0.2,0.5-0.6,0.8-1.1,0.9c-0.2,0-0.4,0.1-0.6,0.1
		c-0.3,0-0.7,0-1,0v0c-0.3,0-0.5,0-0.8,0c-0.2,0-0.4,0-0.6,0c-0.7,0.1-1.2,0.5-1.5,1.2c-0.2,0.5-0.3,1.1-0.4,1.6
		c0,0.2-0.2,0.4-0.4,0.4c-0.2,0-0.3,0.1-0.5,0.1c-0.9,0.3-1.8,0.7-2.5,1.4c-0.2,0.2-0.4,0.4-0.6,0.6c-0.5,0.5-1.1,1-1.8,1.2
		c-0.2,0.1-0.5,0.2-0.7,0.3c-0.2,0.1-0.3,0.3-0.3,0.6c0,0.3,0.2,0.5,0.4,0.6c0.1,0,0.2,0.1,0.3,0.1c0.7,0.2,1.3,0.5,1.8,1
		c0.1,0.1,0.2,0.1,0.2,0.2c0.6,0.5,1.2,1,1.9,1.4c0.2,0.1,0.3,0.3,0.2,0.5c-0.1,0.2-0.1,0.4-0.2,0.7c-0.2,0.6-0.1,1.2,0.1,1.8
		c0.1,0.2,0.2,0.4,0.3,0.6c0.8,1.5,0.7,3.1,0.2,4.6c-0.1,0.4-0.3,0.7-0.5,1.1c-0.4,0.8-1,1.5-1.8,2c-0.5,0.3-1,0.6-1.5,0.8
		c-0.9,0.4-1.8,0.8-2.8,1.1c-2.5,0.9-5,1.8-7.6,2.8c-1.1,0.4-2.1,0.8-3.2,1.1c-0.2,0.1-0.4,0.2-0.6,0.3c-0.7,0.3-1.3,0.9-1.5,1.6
		C56.6,103.1,56.4,103.7,56.2,104.3 M77.5,79.1c-0.7,0.1-1.3,0.2-1.9,0.4c-0.1,0-0.3,0-0.4,0.1c-0.1,0-0.1-0.1-0.2-0.1
		c0,0,0-0.1,0-0.2c0.8-1,1.8-1.5,3-1.6c0.1,0,0.2,0,0.3,0.1c0.1,0,0.2,0.1,0.2,0.2c0.1,0.5-0.2,1-0.7,1.2
		C77.7,79.1,77.6,79.1,77.5,79.1 M77.6,82c0,0.2-0.4,0.5-0.7,0.5c-0.1,0-0.3,0-0.4-0.1c-0.6-0.2-1.1-0.6-1.5-1.1
		c-0.1-0.1,0-0.3,0.1-0.3c0.5-0.1,1.1-0.3,1.6-0.4c0.2,0,0.3,0,0.4,0.2c0.2,0.3,0.4,0.6,0.4,0.9C77.6,81.8,77.6,81.9,77.6,82
		 M83.4,119.3c-2.4-0.2-4.7-0.6-7.1-1.2c-3.7-0.9-7.2-2.1-10.5-4c-3-1.7-5.7-3.7-8.1-6.3c-1-1-0.9-0.8-0.5-2.1
		c0.2-0.7,0.4-1.3,0.6-2c0.1-0.2,0.2-0.4,0.2-0.7c0.2-0.5,0.5-0.8,1-1c0.1-0.1,0.2-0.1,0.4-0.1c1.1-0.4,2.3-0.8,3.4-1.2
		c2.4-0.9,4.7-1.7,7.1-2.6c1-0.4,2-0.8,3.1-1.2c0.5-0.2,1-0.5,1.5-0.7c1.2-0.7,2.1-1.6,2.6-2.9c0.5-1,0.8-2,0.9-3
		c0.1-1.2,0-2.4-0.6-3.5c-0.1-0.2-0.2-0.4-0.3-0.5c-0.3-0.5-0.2-1,0-1.5c0.2-0.4,0.4-0.8,0.8-1.1c0.2-0.1,0.3-0.3,0.5-0.4
		c0.5-0.5,0.7-1.1,0.6-1.8c-0.1-0.3-0.2-0.6-0.3-0.9c-0.1-0.2,0-0.3,0.1-0.5c0.1-0.1,0.3-0.2,0.4-0.3c0.8-0.9,0.9-1.9,0.5-3
		c-0.1-0.2-0.2-0.4-0.3-0.6c-0.2-0.3-0.2-0.6-0.1-1c0.1-0.2,0.1-0.4,0.2-0.6c0.1-0.2,0.2-0.3,0.5-0.3c0.3,0,0.5,0,0.8,0
		c0.5,0,0.9,0,1.4,0c0.3,0,0.7-0.1,1-0.1c0.8-0.2,1.4-0.7,1.8-1.5c0.4-0.7,0.4-1.5,0.3-2.3c-0.1-0.5-0.2-1-0.5-1.5
		c-0.2-0.4-0.4-0.8-0.7-1.2c-0.3-0.6-0.7-1.1-1-1.7c-0.3-0.5-0.5-0.9-0.7-1.4c-0.5-1-0.9-2.1-1.4-3.1c-0.5-1.1-1.1-2.3-1.6-3.4
		c-0.2-0.4-0.4-0.8-0.6-1.2c-0.6-1.1-0.8-2.2-0.8-3.5c0-0.5,0-0.9,0-1.4c0-0.7-0.2-1.5-0.5-2.1c-0.3-0.8-0.7-1.5-1.1-2.2
		c-1-1.7-1.8-3.5-2.6-5.3c-1-2.1-2-4.2-3.1-6.3c0-0.1-0.1-0.1-0.1-0.2c-0.1-0.2-0.2-0.5-0.2-0.8c0.2-1-0.1-1.8-0.6-2.7
		c-0.3-0.5-0.7-1-1.1-1.4c-0.5-0.6-1.1-1.1-1.7-1.5c-0.4-0.3-0.9-0.7-1.3-1.1c-0.2-0.1-0.3-0.3-0.5-0.3c-0.8-0.4-1.6-0.9-2.4-1.3
		c-0.7-0.4-1.4-0.8-2.2-1.1c-0.1-0.1-0.3-0.2-0.4-0.3c-0.1,0-0.1-0.2,0-0.3c0.1-0.1,0.3-0.3,0.4-0.4c1.8-1.4,3.7-2.7,5.8-3.7
		c2.9-1.5,6-2.6,9.2-3.4c2.5-0.6,5.1-1,7.7-1.2c1.7-0.2,3.4-0.3,5.2-0.3c0.2,0,0.4,0,0.5,0l1.6,0c0.6,0.1,0.7,0.6,0.7,0.8l0,0.1
		c-0.2,2.5-0.9,3.9-1.6,5.4c-0.9,1.9-1.8,4-1.8,7.9c0,4,0.9,6,1.8,7.9c0.9,1.9,1.7,3.6,1.7,7.2c0,3.6-0.8,5.4-1.7,7.2
		c-0.9,1.9-1.8,4-1.8,7.9c0,4,0.9,6,1.8,7.9c0.9,1.9,1.7,3.6,1.7,7.2c0,3.6-0.8,5.4-1.7,7.2c-0.9,2-1.8,4-1.8,7.9c0,4,0.9,6,1.8,7.9
		c0.9,1.9,1.7,3.6,1.7,7.2c0,3.6-0.8,5.4-1.7,7.2c-0.7,1.5-1.4,3-1.7,5.4c0,0.1-0.2,0.6-0.7,0.7C86.1,119.5,84.7,119.4,83.4,119.3
		 M105.6,79.6c0,0-0.1,0-0.1,0c-0.1,0-0.2,0-0.3,0c-0.7-0.2-1.3-0.3-2-0.4c-0.1,0-0.2,0-0.3-0.1c-0.5-0.1-0.8-0.7-0.7-1.2
		c0-0.1,0.2-0.2,0.3-0.2c0.1,0,0.3,0,0.4,0c0.8,0.1,1.5,0.4,2.1,0.9c0.3,0.2,0.5,0.5,0.7,0.7c0,0,0,0.1,0,0.2
		C105.7,79.5,105.6,79.5,105.6,79.6 M105.6,81.4c-0.4,0.5-0.9,0.8-1.5,1.1c-0.1,0-0.3,0.1-0.3,0.1c-0.4,0-0.9-0.4-0.7-0.9
		c0.1-0.3,0.2-0.6,0.4-0.8c0.1-0.1,0.2-0.1,0.3-0.2c0,0,0.1,0,0.1,0c0.5,0.1,1.1,0.3,1.6,0.4C105.7,81.1,105.7,81.3,105.6,81.4
		 M135.5,77.5c-0.1,0.9-0.2,1.8-0.3,2.8c0,0.2,0,0.3-0.1,0.5c0,0.2-0.2,0.4-0.3,0.5c-0.1,0-0.1,0.1-0.2,0.1
		c-0.9,0.4-1.8,0.6-2.8,0.4c-0.8-0.1-1.4-0.5-1.6-1.3c-0.1-0.2-0.1-0.3-0.2-0.4c-0.2-0.2-0.4-0.3-0.6-0.2c-0.3,0.1-0.5,0.3-0.5,0.5
		c0,0.2,0,0.4,0.1,0.6c0.2,0.7,0.7,1.3,1.3,1.7c0.5,0.3,1,0.5,1.6,0.6c0.7,0.1,1.5,0.1,2.2-0.1c0.2,0,0.4-0.1,0.6-0.1
		c0.1,0,0.3,0.1,0.3,0.2c0,0.1,0,0.1,0,0.2c0,0.2,0,0.3,0,0.5c-0.6,4.4-1.6,8.7-3.2,12.8c-1.1,2.9-2.6,5.7-4.4,8.2
		c-0.4,0.5-0.8,1-1.1,1.5c-0.1,0.1-0.2,0.3-0.3,0.4c-0.2,0.2-0.4,0.1-0.5-0.1c-0.1-0.2-0.2-0.5-0.3-0.8c-0.3-0.9-0.6-1.8-0.9-2.6
		c-0.1-0.3-0.2-0.5-0.3-0.7c-0.3-0.7-0.8-1.3-1.6-1.6c-0.2-0.1-0.4-0.2-0.6-0.3c-0.9-0.3-1.8-0.6-2.7-0.9c-2-0.7-4-1.4-6-2.2
		c-1.4-0.5-2.7-1-4.1-1.6c-0.5-0.2-1-0.4-1.5-0.6c-0.5-0.2-0.9-0.5-1.3-0.9c-0.3-0.3-0.6-0.6-0.9-1c-0.8-1.3-1.3-2.6-1.2-4.1
		c0-0.6,0.1-1.2,0.4-1.8c0.1-0.3,0.3-0.6,0.4-0.9c0.3-0.6,0.3-1.3,0.1-1.9c-0.3-0.9-0.3-0.9,0.5-1.3c0.4-0.2,0.7-0.5,1-0.8
		c0.3-0.2,0.5-0.4,0.8-0.6c0.5-0.4,1-0.7,1.7-0.9c0.2,0,0.3-0.1,0.5-0.2c0.4-0.2,0.5-0.8,0.1-1.1c-0.1-0.1-0.2-0.2-0.3-0.2
		c-0.2-0.1-0.4-0.2-0.6-0.3c-0.5-0.2-0.9-0.4-1.3-0.8c-0.2-0.2-0.5-0.5-0.7-0.7c-0.8-0.8-1.8-1.4-2.9-1.6c-0.1,0-0.3-0.1-0.4-0.1
		c-0.1,0-0.2-0.2-0.2-0.3c0-0.2,0-0.3-0.1-0.5c-0.1-0.5-0.2-1-0.5-1.5c-0.2-0.4-0.5-0.7-1-0.8c-0.3-0.1-0.6-0.1-1-0.1
		c-0.4,0-0.8,0-1.2,0c-0.4,0-0.7,0-1.1-0.1c-0.7-0.1-1.1-0.5-1.2-1.1c-0.2-0.7-0.1-1.3,0.1-2c0.1-0.3,0.3-0.6,0.4-0.9
		c0.3-0.6,0.7-1.2,1-1.7c0.5-0.9,0.9-1.8,1.3-2.7c0.6-1.3,1.2-2.5,1.8-3.8c0.5-1.1,1.1-2.3,1.6-3.4c0.3-0.6,0.5-1.3,0.7-2
		c0.4-1.6,1.3-2.3,3-2.5c1.1-0.1,2.1,0.1,3.1,0.6c0.3,0.1,0.6,0.3,0.9,0.5c2.2,1.3,4.1,3,5.7,5c0.4,0.6,0.9,1.2,1.4,1.7
		c0.2,0.2,0.4,0.4,0.6,0.6c0.2,0.2,0.6,0.2,0.8,0c0.3-0.2,0.3-0.6,0.2-0.9c-0.1-0.1-0.1-0.2-0.2-0.2c-0.6-0.8-1.3-1.6-1.9-2.4
		c-1.7-2.2-3.9-4-6.4-5.4c-0.8-0.5-1.7-0.8-2.6-0.9c-1.2-0.2-2.4-0.1-3.5,0.4c-0.2,0.1-0.3,0.1-0.5,0.2c-0.1,0-0.3-0.1-0.3-0.2
		c0-0.1,0-0.2,0-0.3c0.1-0.3,0.1-0.6,0.2-0.9c0.1-0.4,0.3-0.8,0.5-1.2c0.3-0.6,0.6-1.2,1-1.9c0.6-1.1,1.2-2.3,1.7-3.5
		c0.9-2,1.9-4,2.9-6c0.1-0.3,0.3-0.5,0.4-0.8c0.1-0.2,0.3-0.3,0.5-0.1c0.5,0.3,0.9,0.7,1.4,1c0.4,0.3,0.6,0.6,0.6,1.1
		c0,0.2,0,0.3,0,0.5c0.1,0.8,0.3,1.5,0.6,2.2c0.3,0.5,0.4,1,0.7,1.6c0.2,0.6,0.5,1.2,0.8,1.7c0.2,0.5,0.5,1,0.9,1.5
		c0.5,0.7,1.2,1.3,2.1,1.7c0.3,0.1,0.5,0.2,0.8,0.3c0.6,0.2,1.1,0.7,1.4,1.2c0.1,0.3,0.3,0.5,0.4,0.8c0.3,0.6,0.5,1.1,0.6,1.8
		c0.1,0.6,0.3,1.2,0.5,1.8c0.2,0.8,0.6,1.5,1,2.3c0.4,0.7,0.9,1.3,1.5,1.8c0.6,0.5,1,1.1,1.3,1.7c0.3,0.6,0.6,1.2,0.8,1.8
		c0.3,1,0.6,2,0.9,3c0.2,0.5,0.3,1.1,0.5,1.6c0.1,0.3,0.2,0.6,0.3,0.8c0.5,1.4,1.5,2.4,2.8,3.1c0.5,0.3,1.1,0.5,1.7,0.6
		c0.2,0.1,0.4,0.1,0.6,0.1c0.2,0,0.3,0.1,0.4,0.3c0.1,0.4,0.5,0.6,0.7,0.9c0.2,0.2,0.5,0.5,0.6,0.8c0.1,0.2,0,0.4-0.1,0.5
		c-0.1,0.1-0.3,0.2-0.4,0.3c-0.5,0.3-0.9,0.7-1.2,1.2c-0.1,0.1-0.2,0.2-0.2,0.3c0,0-0.1,0-0.1,0c0,0-0.1-0.1-0.1-0.1
		c0.1-0.3,0.2-0.5,0.3-0.8c0.1-0.2,0.1-0.3,0-0.5c-0.2-0.4-0.7-0.6-1.1-0.2c0,0-0.1,0.1-0.1,0.1c-0.3,0.5-0.6,1-0.7,1.6
		c-0.1,0.6,0.2,1.2,0.7,1.5c0.5,0.3,1.2,0.3,1.7-0.1c0.2-0.2,0.4-0.4,0.6-0.7c0.2-0.2,0.3-0.5,0.4-0.7c0.1-0.1,0.2-0.2,0.4-0.3
		c0.1,0,0.2,0,0.3,0.1c0,0.1,0.1,0.2,0.1,0.3C135.6,76.5,135.5,77,135.5,77.5L135.5,77.5z M135.8,68.1c0,0.5,0,1,0,1.5
		c0,0.1,0,0.3-0.1,0.4c0,0.1-0.2,0.2-0.3,0.3c-0.1,0-0.1,0-0.2,0c-1,0-1.9-0.1-2.8-0.5c-1.4-0.5-2.4-1.5-2.9-2.9
		c-0.2-0.5-0.3-1-0.4-1.4c-0.2-0.7-0.4-1.4-0.6-2.1c-0.2-0.9-0.5-1.7-0.9-2.5c-0.1-0.2-0.1-0.4-0.2-0.6c0-0.1,0.1-0.3,0.2-0.3
		c0.7-0.1,1.1,0.2,1.3,0.8c0.1,0.3,0.1,0.7,0.2,1c0.3,1.2,0.9,2.3,1.9,3.1c1,0.8,2.1,1.2,3.3,1.1c0.3,0,0.7,0,1,0
		c0.2,0,0.3,0.2,0.3,0.3c0,0.2,0,0.3,0,0.5C135.8,67.1,135.8,67.6,135.8,68.1L135.8,68.1z"/>
</g>
</svg>
