<?xml version="1.0" encoding="utf-8"?>
<!-- Generator: Adobe Illustrator 23.0.2, SVG Export Plug-In . SVG Version: 6.00 Build 0)  -->
<svg version="1.1" id="Layer_1" xmlns="http://www.w3.org/2000/svg" xmlns:xlink="http://www.w3.org/1999/xlink" x="0px" y="0px"
	 viewBox="0 0 234.4 288" style="enable-background:new 0 0 234.4 288;" xml:space="preserve">
<style type="text/css">
	.st0{fill:#FFFFFF;}
</style>
<g>
	<g>
		<g id="XMLID_1_">
			<g>
				<path class="st0" d="M179.8,54.5c16.6,23.9,25.8,55.7,25.8,89.5s-9.1,65.5-25.8,89.5c-16.7,24-38.9,37.2-62.6,37.2
					c-23.7,0-45.9-13.2-62.6-37.2C38,209.5,28.8,177.8,28.8,144S38,78.5,54.6,54.5c16.7-24,38.9-37.2,62.6-37.2
					C140.9,17.3,163.1,30.5,179.8,54.5z M203.5,144c0-68.7-38.7-124.7-86.3-124.7S30.9,75.3,30.9,144c0,68.7,38.7,124.7,86.3,124.7
					S203.5,212.7,203.5,144z"/>
				<path d="M117.2,19.3c47.6,0,86.3,55.9,86.3,124.7c0,68.7-38.7,124.7-86.3,124.7S30.9,212.7,30.9,144
					C30.9,75.3,69.6,19.3,117.2,19.3z"/>
			</g>
			<g>
			</g>
		</g>
	</g>
	<polygon class="st0" points="117,238 116.2,237.9 115.3,237.7 114,237.3 112.3,236.5 106.9,233.3 105.4,232.9 104.4,232.8 
		103.4,232.9 102.4,233.1 101.3,233.5 98.6,235 96.3,236.5 94.7,237.3 93.4,237.7 92.9,236 94.3,235.5 97,234 99.3,232.6 101,231.7 
		102.3,231.3 103.2,231.1 104,231 104.5,231 105.4,231.1 106.3,231.3 107.5,231.7 109.2,232.5 114.6,235.7 116.1,236.1 117.1,236.2 
		118.1,236.2 118.8,236 120.2,235.5 122.9,234 125.2,232.6 126.9,231.7 128.2,231.3 129.1,231.1 129.9,231 130.4,231 131.3,231.1 
		132.2,231.3 133.4,231.7 135.1,232.5 140.5,235.7 141.6,236.1 141.1,237.7 139.9,237.3 138.2,236.5 133.1,233.5 132,233.1 
		131,232.9 130.3,232.8 129.3,232.9 128.3,233.1 127.2,233.5 124.5,235 122.2,236.5 120.6,237.3 119.3,237.7 118.4,237.9 117.5,238 
			"/>
	<path class="st0" d="M179.2,187.4l-5.4-3.1l-1.7-0.8l-1.3-0.4l-0.9-0.2l-0.9-0.1l-0.5,0l-0.9,0.1l-0.9,0.2l-1.3,0.4l-1.6,0.8
		l-2.3,1.4l-2.7,1.5l-1.1,0.4l-1,0.3l-1,0.1l-1-0.1l-1.5-0.4l-4.4-2.6c-0.1-0.9-0.3-1.6-0.5-2.1c-0.9-2.1-2.7-2.8-3.7-3.3
		c-0.9-0.4-1.7,0.1-2.3,0.4c-0.6,0.4-1,0.5-1.5,0.4c-1.4-0.5-2.6-1.8-2.7-2c-0.1-0.3-0.4-0.6-0.7-0.7c-0.7-0.2-2,0.3-3.1,1.1
		c-0.5-0.8-1.1-1.6-1.8-2.3c-0.1-0.1-0.1-0.1-0.2-0.2c-1.3-0.6-2.4,0.2-3,0.8c-0.6,0.5-1.1,0.8-1.4,1l0-0.1c0-1.8-0.8-3.2-2.2-3.8
		c-1.3-0.6-2.9-0.2-4,0.9c-4,3.3-6.8,5.2-8.5,4.5c-0.8-0.3-1-0.7-1.3-1.2c-0.4-0.7-0.9-1.6-2.6-1.8c-6-0.6-15.9,5.5-16.3,5.7
		c0,0-0.4,0.2-1.1,0.7l-0.4,0l-0.5,0l-0.9,0.1l-0.9,0.2l-1.3,0.4l-1.7,0.8l-2.3,1.4l-2.7,1.5l-1.1,0.4l-1,0.3l-1,0.1l-1-0.1
		l-1.5-0.4l-5.4-3.2l-1.7-0.8l-1.3-0.4l-0.9-0.2l-0.9-0.1l-0.5,0l-0.9,0.1l-0.9,0.2l-1.3,0.4l-1.7,0.8l-2.3,1.4l-2.7,1.5l-1.1,0.4
		l0.6,1.7l0.9-0.3l1.6-0.8l2.3-1.4l2.7-1.5l1.1-0.4l1-0.3l1-0.1l1,0.1l1.5,0.4l5.4,3.1L75,189l1.3,0.4l0.9,0.2l0.9,0.1l0.5,0
		l0.9-0.1l0.9-0.2l1.3-0.4l1.7-0.8l2-1.2l3-1.7l1-0.4c-3,2.7-6.8,7.5-7.6,14.4l-0.6-0.2l-0.9-0.2l-0.9-0.1l-0.9,0l-0.9,0.1l-0.9,0.2
		l-1.3,0.5l-5.1,3l-1.5,0.7l-1.1,0.4l0.5,1.7l1.3-0.4l1.7-0.8l2-1.2l3-1.7l1.1-0.4l1-0.3l1-0.1l0.7,0.1l1,0.2l0.5,0.2
		c-0.2,3.9,0.6,8.5,2.9,13.8c0.3,0.7,0.7,1.4,1.1,2.1l-1.5,0.9l-2.7,1.5l-1.1,0.4l0.6,1.7l0.9-0.3l1.7-0.8l2.3-1.4l0.9-0.5
		c2.4,2.9,6.1,5.2,10.6,6.4c2.7,0.7,5.6,1.1,8.5,1.1c6.8,0,13.9-1.9,19.5-5.4l1.6,0.8l1.3,0.4l0.9,0.2l0.9,0.1l0.5,0l0.9-0.1
		l0.9-0.2l1.3-0.4l1.7-0.8l2-1.2l3-1.7l1.4-0.5l0.7-0.1l1-0.1l0.3,0l1,0.2l1.4,0.5l5.1,3l1.6,0.8l0.7-1.6l-0.3-0.1l-5.1-3l-1.7-0.8
		l-1.3-0.4L144,215l-0.9-0.1l-0.5,0l-0.9,0.1l-0.9,0.2l-1.3,0.4l-1.7,0.8l-2.3,1.4l-2.7,1.5l-1.1,0.4l-1,0.3l-1,0.1l-0.3,0l-1-0.2
		l-1.5-0.7c0,0,0.1,0,0.1-0.1c1.9-1.4,3.6-2.5,5.4-3.6c4.4-2.9,8.3-5.4,11.3-9.7l0.2,0l0.9-0.1l0.9-0.2l1.3-0.4l1.7-0.8l2.3-1.4
		l2.7-1.5l1.1-0.4l1-0.3l1-0.1l1,0.1l1.5,0.4l1.5,0.7l2.3,1.4l2.8,1.6l0.9,0.3l0.6-1.7l-0.7-0.3l-5.1-3l-1.7-0.8l-1.3-0.4l-0.9-0.2
		l-0.9-0.1l-0.5,0l-0.9,0.1l-0.9,0.2l-1.3,0.4l-1.7,0.8l-2,1.2l-3,1.7l-1.1,0.4l-0.7,0.2c1.6-2.7,2.9-6.1,3.9-10.5
		c0.3-1.6,0.4-4,0.3-6.3l1.9,1.1l1.7,0.8l1.3,0.4l0.9,0.2l0.9,0.1l0.5,0l0.9-0.1l0.9-0.2l1.3-0.4l1.7-0.8l2.3-1.4l2.7-1.5l1.1-0.4
		l1-0.3l1-0.1l1,0.1l1.5,0.4l5.4,3.2l1.7,0.8l1.2,0.4l0.5-1.7L179.2,187.4z M147.1,193c-2.8,12.7-8.5,16.4-15.6,21.1
		c-1.7,1.1-3.5,2.3-5.4,3.7c-7.8,5.7-19.2,7.8-28.5,5.3c-5.7-1.5-9.8-4.7-11.7-8.9c-9.2-21,7.1-30.2,7.8-30.6
		c0.1-0.1,9-5.5,14.5-5.5c0.2,0,0.5,0,0.7,0c0.8,0.1,1,0.3,1.3,0.9c0.4,0.6,0.9,1.5,2.2,2c2.9,1.1,6.4-1.5,10.3-4.8c0,0,0,0,0.1-0.1
		c0.6-0.6,1.4-0.9,2.1-0.6c0.7,0.3,1.1,1.1,1.1,2.2c0,0.1,0,0.2,0,0.2l0.1,0.5c0.3,1,0.6,2.4,0.3,2.6c-0.1,0.1-0.3,0.2-0.6,0
		l-1.3,1.2c0.4,0.5,1.6,1.1,2.9,0.3c1-0.7,1.1-1.8,0.8-3.1c0.5-0.2,1.1-0.6,2-1.3c0.6-0.4,0.9-0.6,1.1-0.6c0.8,0.8,1.4,1.8,1.8,2.7
		l0.7,1.7c0.2,0.4,0.7,0.6,1.1,0.5c0.4-0.2,0.7-0.7,0.5-1.1c0,0-0.2-0.5-0.5-1.2c0.6-0.5,1.3-0.7,1.7-0.9c0.6,0.8,2,2.1,3.5,2.6
		c1.3,0.5,2.3-0.1,3-0.5c0.3-0.2,0.6-0.3,0.7-0.3c1.2,0.5,2.2,1,2.8,2.4C147.4,184.8,147.7,190.3,147.1,193z"/>
	<path class="st0" d="M117.6,183.9c-0.5-0.8-1.5-1.7-3.7-1.4c-0.8,0.1-1.5,0.5-1.9,1.2c-0.7,1.2-0.6,3.2,0.2,5.5
		c1.1,2.8,2.2,4.9,2.2,5c0.2,0.3,0.5,0.5,0.8,0.5c0,0,0,0,0,0c0.3,0,0.6-0.2,0.8-0.5C116.3,193.4,119.4,186.8,117.6,183.9z
		 M114.1,184.2c0.2,0,0.4,0,0.6,0c0.9,0,1.3,0.3,1.4,0.6c0.1,0.2,0.2,0.4,0.2,0.6c-0.6-0.2-1.5-0.4-3-0.4c0-0.1,0.1-0.2,0.1-0.3
		C113.6,184.4,113.8,184.3,114.1,184.2z M115.1,191.7c-0.4-0.8-0.8-1.9-1.3-3.1c0-0.1,0-0.1-0.1-0.2c0.9-0.1,1.9-0.3,2.5-0.6
		C116.1,189,115.6,190.4,115.1,191.7z"/>
	<path class="st0" d="M166,171.6l-5.1-3l-1.7-0.8l-1.3-0.4l-0.9-0.2l-0.9-0.1l-0.5,0l-0.8,0.1l-0.9,0.2l-1.3,0.4l-1.7,0.8l-2.3,1.4
		l-2.7,1.5L145,172l-1,0.3l-1,0.1l-1-0.1l-1.5-0.4l-5.4-3.1l-1.7-0.8l-1.3-0.4l-0.9-0.2l-0.9-0.1l-0.5,0l-0.9,0.1l-0.9,0.2l-1.3,0.4
		l-1.4,0.7l-2.8,1.6l-2.7,1.5l-1.1,0.4l-1,0.3l-0.8,0l-1.2-0.1l-1.5-0.4l-5.4-3.1l-1.7-0.8l-1.3-0.4l-0.8-0.2
		c0.4-0.4,0.9-0.8,1.5-1.3c0,0,0,0,0,0c1.1,0.5,2.6-0.1,5.4-1.2c0.6-0.2,1.3-0.5,2-0.7c6.4-2,10.7-7.4,11.2-8.1
		c0.4-0.4,2.7-2.6,4.3-5.4c1.1-1.9,1.3-3.5,0.6-4.8c-1.4-2.6-5.7-2.9-6.2-2.9l-0.1,0l-0.1,0c-1.3,0.1-12.9,1.1-14.7,1.7
		c-0.4,0.1-1,0.4-1.6,0.7c-3.8,0.7-8.2,1.3-9,1.2c-1.1-0.5-1.9,0.4-2.5,1c-0.2,0.3-0.5,0.5-0.7,0.7c-0.4,0.3-0.7,0.4-1,0.6
		c-0.5,0.2-1.1,0.5-1.3,1.2c-0.2,0.7-0.1,1.7,0.6,2.4c0.4,0.4,1,0.8,2,0.8c0.3,0,0.7,0,1.1-0.1c-0.5,0.5-1,1.1-1.5,1.7
		c-0.7,0.8-1.3,1.5-1.7,2c-0.5,0.6-0.7,1.2-0.9,1.9c-0.3,1-0.7,2.2-2.2,3.9c-0.7,0.8-0.9,1.5-1,2.1c-0.1,0.4-0.1,0.8-0.4,1.2
		c-0.8,1.2-1.6,2.6-0.8,3.6c-0.1,0.3-0.2,0.6-0.3,0.9c-0.1,0.3-0.2,0.5-0.3,0.8l-4.5-2.6l-1.7-0.8l-1.3-0.4l-0.9-0.2l-0.9-0.1
		l-0.5,0l-0.9,0.1l-0.9,0.2l-1.3,0.4l-1.7,0.8l-2.3,1.4l-2.7,1.5L67,172l0.6,1.7l0.9-0.3l1.7-0.8l2-1.2l3-1.7l1.1-0.4l1-0.3l1-0.1
		l1,0.1l1.5,0.4l5.4,3.1l0.3,0.2c0,0-0.1,0.1-0.1,0.1l-0.3,0.3l0.1,0.4c0,0.2,0.4,1.8,1.7,2.3c0.2,0.1,0.5,0.1,0.8,0.1
		c0.4,0,0.9-0.1,1.5-0.5c0.1-0.1,0.2-0.2,0.4-0.3c0,0.2,0,0.4,0.1,0.6c0.3,0.7,1.2,1.2,2.3,1.2c0,0,0,0,0,0c0.6,0,2.2-0.2,3-2.3
		c0.1-0.1,0.1-0.3,0.2-0.4l0.4,0.4l0.1,0c0.6,0.5,1.2,0.7,1.7,0.7c0.1,0,0.3,0,0.4-0.1c1.2-0.3,1.7-1.7,2-2.6
		c0.1-0.2,0.1-0.3,0.2-0.4c0.7-0.6,2-2.4,2.5-3.6l0.7,0l0.3,0l1,0.2l1.4,0.5l5.1,3l1.7,0.8l1.3,0.4l0.9,0.2l0.9,0.1l0.5,0l0.1,0h0.1
		l0.9-0.1l0.9-0.2l1.3-0.4l1.7-0.8l2.3-1.4l2.7-1.5l1.1-0.4l1-0.3l1-0.1l0.3,0l1,0.2l1.4,0.5l5.1,3l1.7,0.8l1.3,0.4l0.9,0.2l0.9,0.1
		l0.9,0l0.9-0.1l1.8-0.6l1.6-0.8l2-1.2l3-1.7l1.1-0.4l1-0.3l1-0.1l0.3,0l1,0.2l1.4,0.5l4.6,2.8l1.7,0.9l1.2,0.5l0.6-1.7L166,171.6z
		 M96.2,151.3c-0.7,0.2-1.2,0.1-1.4-0.1c-0.2-0.2-0.2-0.6-0.2-0.6c0,0,0.2-0.1,0.4-0.2c0.4-0.2,0.8-0.4,1.4-0.8
		c0.4-0.3,0.7-0.6,0.9-0.9c0.2-0.2,0.4-0.5,0.6-0.6c0.5,0.2,1.9,0.1,4.1-0.2c-0.3,0.2-0.7,0.3-0.9,0.4c-1.5,0.6-2.2,1.6-2.8,2.5
		C97.8,150.9,97.2,151.1,96.2,151.3z M101.9,167.9c-0.2,0.6-1.7,2.8-2.1,3.2c-0.4,0.2-0.6,0.7-0.8,1.2c-0.1,0.4-0.5,1.4-0.8,1.5
		c-0.1,0-0.2,0-0.5-0.2c0.2-0.3,0.4-0.7,0.6-1.1l0.1-0.2l0-0.2c0-0.4,0.3-1.8,0.8-2.6c0.7-1.1,1.7-2.7,1.9-4.7
		c0.1-0.5,0.7-1.3,1.5-1.8c1-0.7,2.5-2.3,2.6-2.4l-1.3-1.2c-0.4,0.4-1.6,1.7-2.3,2.1c-1,0.7-2.1,1.8-2.2,3.1c-0.2,1.6-1,2.9-1.7,4
		c-0.1,0.2-0.3,0.4-0.4,0.7c-0.4,0.5-2.2,2.5-3.2,4.8c-0.3,0.7-0.7,1-1.2,1.1c-0.3,0.1-0.6,0-0.8-0.1c0.1-0.2,0.2-0.4,0.3-0.6
		c0.4-0.6,0.8-1.2,0.7-1.9c-0.1-0.5-0.1-0.5,0.8-1.8c0.7-1,1-2,1.3-2.9c0.2-0.5,0.3-0.9,0.5-1.3c0.3-0.6,1-1.4,1.6-2.1
		c0.6-0.7,1.2-1.4,1.4-1.9c0.3-0.7,1.2-1.8,2-2.2c0.9-0.6,3.6-3,3.9-3.3l-1.2-1.3c-1.1,1-3,2.8-3.6,3.1c-0.9,0.6-2.2,1.9-2.7,3.1
		c-0.1,0.3-0.6,0.9-1.1,1.4c-0.7,0.8-1.4,1.7-1.8,2.5c-0.2,0.5-0.4,1-0.6,1.5c-0.1,0.3-0.2,0.5-0.3,0.8l-2.2,2.4L91,171l0,0.3
		c0,0.1-0.2,1.7-1.8,2.8c-0.1,0.1-0.4,0.3-0.6,0.2c-0.2-0.1-0.4-0.4-0.5-0.7c0.4-0.6,1.2-1.6,1.5-2.7c0.3-1,0.7-1.7,1.3-2.5
		c0.1-0.2,0.3-0.4,0.4-0.6c0.2-0.3,0.6-0.8,1-1.4c1.5-2.1,2.7-3.7,2.9-4.6c0.2-0.5,1.9-2.1,2.9-3c0.9-0.8,1.7-1.5,2.2-2.1
		c1.4-1.6,2-2.7,2-2.7l-1.5-0.9c0,0-0.6,1-1.8,2.4c-0.5,0.5-1.2,1.2-2.1,2c-2,1.8-3.2,3-3.4,3.9c-0.2,0.6-1.4,2.3-2.3,3.6
		c0,0,0-0.1,0-0.1c0.1-0.5,0.1-0.8,0.5-1.2c1.7-2,2.2-3.4,2.6-4.5c0.2-0.6,0.3-1,0.6-1.3c0.4-0.5,1-1.2,1.7-1.9
		c1.1-1.2,2.2-2.4,2.7-3.2c0.1-0.2,0.7-1.2,0.7-1.2c0.5-0.7,1-1.2,1.9-1.6c0.7-0.3,1.9-0.9,3.1-1.5c1.7-0.9,3.7-1.9,4.7-2.2
		c1.2-0.4,9.1-1.2,14.2-1.6c1.1,0.1,3.9,0.5,4.7,2c0.4,0.7,0.2,1.8-0.5,3.1c-1.6,2.7-4,5-4,5l-0.1,0.1c0,0.1-4.3,5.6-10.4,7.6
		c-0.7,0.3-1.4,0.5-2,0.8c-1.6,0.6-3.4,1.3-3.9,1.2l-0.4-1.2l-1,0.9c-1.5,1.4-3.3,3-3.6,3.1L101.9,167.9z"/>
	<path class="st0" d="M163.2,121l-0.3-0.4l-0.5,0c-0.5,0-1.9,0-2.8-0.4c-0.3-0.1-0.6-0.2-0.9-0.3c-0.3-1.3-1.9-1.5-3.3-1.7
		c-0.5-0.1-0.9-0.3-1.2-0.5c-0.5-0.3-1.2-0.7-2.2-0.6c-2.3,0.1-3.4-0.4-4.4-0.8c-0.6-0.3-1.3-0.5-2-0.5c-0.6,0-1.6,0-2.6,0.1
		c-1.5,0.1-3.1,0.1-3.9,0c-0.3,0-0.6-0.1-1-0.2c-1.2-0.3-2.9-0.8-4.4,0.6c-0.7,0.7-2.8,1.6-4.5,2.4c-1.2,0.5-2.3,1-2.9,1.4
		c-1.6,1-9.7,9.3-10.7,10.3l-0.1,0.1c-0.3,0.4-2.9,3.9-1.7,6.6c0.6,1.4,1.9,2.3,4.1,2.6c1.3,0.2,2.7,0.3,3.8,0.3
		c1.6,0,2.7-0.1,3.1-0.2c0.8,0,7.8,0.1,13.4-3.5c0.7-0.4,1.3-0.7,1.9-1.1c2.6-1.5,4-2.3,4.3-3.4c0,0,0,0,0,0c2.4-0.4,3.5-0.6,4-0.7
		c1.2,0.4,3.8,0.6,4.8,0.4c0.1,0,0.3,0.1,0.4,0.1c0.9,0.3,2.3,0.8,3.3,0.1c0.6-0.4,0.9-1.1,0.9-2.1l0.1-0.1l-0.1-0.6
		c0.1,0,0.3,0.1,0.4,0.1c0.5,0.1,0.9,0.2,1.3,0.2c1.3,0,2.1-0.7,2.4-1.1c0.7-0.8,0.9-1.9,0.5-2.5c-0.1-0.2-0.3-0.4-0.4-0.5
		c0.1,0,0.3-0.1,0.4-0.1c1.1-0.3,1.6-1,1.7-1.5C164.3,122.4,163.3,121.1,163.2,121z M162.2,123.2c-0.1,0.2-0.4,0.3-0.6,0.4
		c-1.9,0.6-3.2-0.3-3.3-0.3l-0.2-0.2l-3.6,0.2c-0.3-0.1-0.5-0.2-0.8-0.3c-0.5-0.2-1-0.4-1.5-0.5c-0.9-0.2-2.1-0.2-3.1-0.2
		c-0.7,0-1.5,0-1.8-0.1c-1.2-0.4-3-0.2-4,0.1c-0.7,0.2-3.3,0.6-4.2,0.7l0.2,1.8c0.4,0,3.5-0.5,4.5-0.8c0.8-0.3,2.3-0.3,3-0.1
		c0.6,0.2,1.4,0.2,2.4,0.1c0.9,0,2,0,2.6,0.1c0.5,0.1,0.9,0.3,1.4,0.5c0.8,0.3,1.8,0.7,3.1,0.8c1.5,0.1,1.5,0.1,1.9,0.5
		c0.5,0.5,1.2,0.6,1.9,0.7c0.2,0,0.5,0.1,0.6,0.1c0,0.2-0.2,0.5-0.4,0.7c-0.4,0.3-0.9,0.4-1.6,0.2c-2.4-0.7-5.1-0.7-5.8-0.6
		c-0.2-0.1-0.5-0.1-0.8-0.2c-1.2-0.2-2.8-0.3-4.2-1.3c-1-0.6-2.6-0.5-3.8-0.2c-0.8,0.2-2.5,0.4-3.1,0.4l0.1,1.8
		c0.1,0,2.3-0.2,3.5-0.5c0.9-0.3,2-0.3,2.4,0c1.7,1.1,3.6,1.4,4.9,1.5c0.9,0.1,2.1,0.8,2.5,1l0.1,0.1l0.2,0c0.4,0.1,0.9,0.2,1.2,0.3
		c0,0.3-0.1,0.5-0.2,0.5c-0.2,0.2-1.2-0.2-1.6-0.3c-0.6-0.2-1-0.4-1.5-0.2c-0.6,0.1-3.1-0.1-3.8-0.4l-0.4-0.4l-0.6,0.3
		c-0.4,0.1-2.7,0.5-4.8,0.8l-1.2,0.2l0.6,1c-0.3,0.5-2,1.4-3.4,2.3c-0.6,0.3-1.2,0.7-1.9,1.1c-5.4,3.5-12.4,3.2-12.4,3.2l-0.1,0
		l-0.1,0c0,0-3.3,0.4-6.4-0.1c-1.5-0.2-2.4-0.7-2.7-1.5c-0.6-1.5,0.8-4,1.5-4.9c3.5-3.6,9.2-9.3,10.3-10c0.6-0.3,1.6-0.8,2.7-1.3
		c2-0.9,4.1-1.8,5-2.7c0.7-0.7,1.5-0.5,2.7-0.2c0.4,0.1,0.8,0.2,1.3,0.3c0.9,0.1,2.6,0,4.2,0c1,0,1.9-0.1,2.5-0.1
		c0.4,0,0.8,0.2,1.4,0.4c1,0.4,2.5,1,5.1,0.9c0.6,0,0.8,0.1,1.2,0.4c0,0,0,0,0.1,0c-1.5-0.1-3.6-0.2-4.2-0.5
		c-0.9-0.4-2.5-0.2-5.2,0.2c-1.1,0.2-2.2,0.3-2.8,0.3l-2,0.1l0,1.8l2-0.1c0.8,0,1.9-0.2,3-0.3c1.4-0.2,3.7-0.5,4.2-0.3
		c0.9,0.4,2.9,0.6,5.4,0.7c0.7,0,1.3,0.1,1.7,0.1c0.2,0,0.5,0.1,0.7,0.1c1,0.1,1.8,0.2,2.7,0.6c1,0.4,2.3,0.5,3.1,0.5
		C162.1,122.7,162.3,123,162.2,123.2z"/>
	<path class="st0" d="M124.4,114.6c-1,0-2-0.5-2.8-1.3c-4-3.5-6.8-5.5-8.5-4.8c-0.8,0.3-1,0.8-1.3,1.3c-0.4,0.7-0.9,1.7-2.6,1.9
		c-6.1,0.6-15.9-5.9-16.4-6.2c-0.1-0.1-18.3-11-8.5-34.9c2.1-5.2,6.9-9,13.4-10.7c9.6-2.6,21.5-0.1,29.5,6.1
		c1.9,1.4,3.6,2.7,5.4,3.9c7.5,5.2,13.4,9.4,16.4,23.7c0.6,3.1,0.4,9.3-0.4,11.3c-0.9,2.2-2.6,3-3.7,3.5c-0.9,0.4-1.7-0.1-2.3-0.4
		c-0.6-0.4-1-0.6-1.5-0.4c-1.4,0.5-2.6,1.9-2.7,2.2c-0.1,0.3-0.4,0.6-0.7,0.7c-0.7,0.2-2-0.4-3.1-1.1c-0.5,0.9-1.1,1.7-1.8,2.5
		c-0.1,0.1-0.1,0.1-0.2,0.2c-1.3,0.7-2.4-0.3-3.1-0.8c-0.6-0.5-1.1-0.8-1.4-1l0,0.1c0,2-0.9,3.5-2.3,4
		C125.2,114.6,124.8,114.6,124.4,114.6z M113.8,106.6c2.6,0,5.6,2.5,9,5.4c0,0,0,0,0.1,0.1c0.6,0.7,1.4,0.9,2,0.6
		c0.8-0.3,1.2-1.2,1.2-2.5c0-0.1,0-0.2,0-0.2l0.1-0.6c0.3-1.2,0.7-2.6,0.3-2.9c-0.3-0.2-0.4-0.1-0.5,0l-1.3-1.1
		c0.5-0.6,1.7-1.2,2.9-0.3c1,0.7,1,1.9,0.8,3.3c0.5,0.2,1.1,0.7,2.1,1.4c0.6,0.5,0.9,0.6,1.1,0.6c0.8-0.8,1.4-1.9,1.8-2.8l0.7-1.8
		c0.2-0.4,0.7-0.7,1.1-0.5c0.4,0.2,0.7,0.7,0.5,1.1c0,0.1-0.2,0.6-0.5,1.3c0.6,0.5,1.3,0.8,1.7,0.9c0.6-0.9,1.9-2.2,3.5-2.8
		c1.3-0.5,2.4,0.1,3,0.5c0.2,0.1,0.6,0.3,0.6,0.3c1.2-0.5,2.2-1.1,2.8-2.6c0.6-1.6,0.9-7.4,0.3-10.3c-2.8-13.6-8.5-17.6-15.7-22.6
		c-1.7-1.2-3.5-2.5-5.4-3.9c-7.6-5.9-18.8-8.2-27.9-5.8c-5.9,1.6-10.3,5-12.2,9.7c-9.3,22.5,7.6,32.7,7.8,32.8
		c0.1,0.1,9.8,6.5,15.2,5.9c0.8-0.1,0.9-0.3,1.3-1c0.4-0.7,0.9-1.5,2.2-2.1C112.9,106.7,113.4,106.6,113.8,106.6z"/>
	<path class="st0" d="M115.9,94c-0.1-0.3-0.5-0.5-0.8-0.5c-0.3,0-0.6,0.2-0.8,0.5c0,0.1-1.1,2.2-2.2,5c-0.9,2.3-0.9,4.2-0.2,5.5
		c0.4,0.7,1.1,1.1,1.9,1.2c0.3,0,0.6,0.1,0.8,0.1c1.7,0,2.5-0.8,2.9-1.4C119.4,101.3,116.3,94.7,115.9,94z M115.1,96.5
		c0.5,1.3,0.9,2.7,1.2,3.9c-0.7-0.3-1.6-0.5-2.5-0.6c0-0.1,0-0.1,0.1-0.2C114.3,98.4,114.7,97.3,115.1,96.5z M114.7,104
		c-0.2,0-0.4,0-0.6,0c-0.3,0-0.5-0.2-0.6-0.4c-0.1-0.1-0.1-0.2-0.1-0.3c1.5,0,2.4-0.2,3-0.4c-0.1,0.2-0.1,0.4-0.2,0.6
		C115.9,103.6,115.6,104,114.7,104z"/>
</g>
</svg>
